<?xml version="1.0" encoding="UTF-8" standalone="no"?>
<!DOCTYPE svg PUBLIC "-//W3C//DTD SVG 1.1//EN" "http://www.w3.org/Graphics/SVG/1.1/DTD/svg11.dtd">
<svg width="100%" height="100%" viewBox="0 0 762 683" version="1.1" xmlns="http://www.w3.org/2000/svg" xmlns:xlink="http://www.w3.org/1999/xlink" xml:space="preserve" xmlns:serif="http://www.serif.com/" style="fill-rule:evenodd;clip-rule:evenodd;stroke-linejoin:round;stroke-miterlimit:2;">
    <g transform="matrix(1,0,0,1,-0.189343,-196.128)">
        <g>
            <path d="M24.779,761.219C3.889,774.466 -8.138,838.706 6.943,856.271C7.167,856.251 7.396,856.251 7.628,856.276C94.179,865.562 173.333,822.742 243.508,784.779C272.641,769.02 300.244,754.087 326.349,743.944C325.92,743.982 325.49,744.003 325.062,744.008C322.418,744.037 319.831,743.446 317.457,742.319C315.111,741.205 312.959,739.564 311.152,737.483C310.681,736.938 310.232,736.363 309.809,735.76C307.456,736.594 305.046,736.788 302.709,736.438L302.575,736.42C300.201,736.045 297.923,735.102 295.892,733.703C293.914,732.339 292.161,730.536 290.776,728.395C288.158,724.35 286.826,719.085 287.738,713.32C288.156,710.677 288.9,708.201 289.914,705.883C262.036,712.825 235.228,721.485 209.016,729.953C146.969,749.995 88.212,768.977 26.508,761.922C25.854,761.847 25.264,761.595 24.779,761.219Z" style="fill:rgb(138,71,52);"/>
            <path d="M1.264,814.035C-1.091,831.61 0.274,848.504 6.943,856.271C7.167,856.251 7.396,856.251 7.628,856.276C94.179,865.562 173.333,822.742 243.508,784.779C272.641,769.02 300.244,754.087 326.349,743.944C325.92,743.982 325.49,744.003 325.062,744.008C322.418,744.037 319.831,743.446 317.457,742.319C315.111,741.205 312.959,739.564 311.152,737.483C310.681,736.938 310.232,736.363 309.809,735.76C307.456,736.594 305.046,736.788 302.709,736.438L302.575,736.42C301.201,736.203 299.859,735.795 298.578,735.22C177.311,770.613 95.638,816.495 1.264,814.035Z" style="fill:rgb(107,55,41);"/>
            <path d="M346.87,299.441C346.273,299.461 345.664,299.327 345.102,299.021C322.389,286.605 303.715,289.84 285.493,292.997C260.199,297.379 235.71,301.617 202.842,268.523C206.083,305.927 238.634,333.316 238.735,333.402C239.975,334.462 240.28,336.211 239.57,337.605C239.493,337.771 210.251,394.646 215.241,435.28C215.98,441.299 218.32,447.23 221.944,452.96C222.074,453.128 222.187,453.306 222.283,453.491C229.872,465.211 242.819,476.072 258.418,485.114C258.526,485.17 258.63,485.23 258.73,485.295L258.896,485.392C285.419,500.65 319.3,510.497 347.853,510.497C381.172,510.497 420.079,500.682 450.496,485.458C477.82,471.783 498.129,453.905 500.804,435.212C506.466,395.649 474.119,340.555 472.555,337.918C471.561,336.389 471.925,334.33 473.414,333.239C473.531,333.153 512.076,305.329 515.331,267.612C476.656,301.649 448.064,297.402 418.521,293.01C397.107,289.827 375.164,286.565 348.404,299.116C347.907,299.348 347.384,299.451 346.87,299.441Z" style="fill:rgb(224,99,32);fill-rule:nonzero;"/>
            <path d="M239.57,337.605C239.493,337.771 210.251,394.646 215.241,435.28C215.98,441.299 218.32,447.23 221.944,452.96C222.074,453.128 222.187,453.306 222.283,453.491C229.872,465.211 242.819,476.072 258.418,485.114C258.526,485.17 258.63,485.23 258.73,485.295L258.896,485.392C285.419,500.65 319.3,510.497 347.853,510.497C381.172,510.497 420.079,500.682 450.496,485.458C477.82,471.783 498.129,453.905 500.804,435.212C506.466,395.649 474.119,340.555 472.555,337.918C471.561,336.389 471.925,334.33 473.414,333.239C473.531,333.153 512.076,305.329 515.331,267.612C514.275,268.541 513.228,269.437 512.187,270.309C500.926,307.275 448.8,326.042 448.8,326.042C448.8,326.042 489.688,397.006 487.257,428.263C484.826,459.519 392.792,497.722 347.296,495.638C301.8,493.554 239.982,467.159 227.479,440.765C214.976,414.371 237.416,342.03 239.57,337.605Z" style="fill:rgb(181,63,0);fill-rule:nonzero;"/>
            <path d="M402.707,515.554C403.913,514.07 406.094,513.845 407.577,515.052C409.061,516.258 409.286,518.439 408.079,519.922C398.548,531.684 393.919,551.089 392.892,572.815C391.774,596.468 394.958,622.72 400.775,644.966C405.32,662.347 411.405,677.163 418.204,686.162C418.409,686.36 418.592,686.588 418.748,686.843L418.8,686.932C420.374,688.923 421.983,690.603 423.619,691.93C425.411,693.381 427.2,694.36 428.964,694.796C429.089,694.012 429.482,693.267 430.132,692.711L430.996,691.967C431.281,688.425 431.753,681.955 432.858,673.253C434.828,657.749 436.674,635.879 437.866,610.592C438.067,606.323 438.246,602.066 438.4,597.841C438.467,595.931 440.071,594.437 441.982,594.504C443.892,594.57 445.386,596.175 445.319,598.085C445.156,602.553 444.977,606.834 444.785,610.917C443.587,636.322 441.72,658.393 439.722,674.12C439.16,678.541 438.527,682.507 437.833,685.965C440.473,683.556 443.15,680.956 445.797,678.045L445.806,678.023C446.117,677.291 446.651,676.723 447.295,676.361C462.015,659.406 475.401,631.961 475.729,572.552C475.736,570.641 477.292,569.099 479.202,569.106C481.113,569.114 482.655,570.669 482.648,572.58C482.465,605.654 478.329,629.244 472.142,646.756C487.243,626.535 496.957,598.799 499.077,570.905C501.324,541.343 495.027,511.723 477.543,490.926C475.093,488.01 472.412,485.26 469.498,482.704C464.521,485.852 459.191,488.84 453.588,491.645C422.248,507.33 382.169,517.444 347.853,517.444C319.205,517.444 285.428,507.923 258.361,493.024C249.553,512.001 245.988,530.583 246.333,548.316C246.971,580.996 260.877,610.93 279.702,635.223C298.591,659.599 322.386,678.255 342.726,688.327C350.992,692.42 358.613,695.069 365.002,696.072C365.122,696.084 365.241,696.102 365.359,696.127L365.361,696.127L365.366,696.128C367.342,696.421 369.198,696.554 370.915,696.52L370.934,696.52C380.722,696.329 389.081,695.096 396.236,693.157C401.785,691.652 406.584,689.723 410.747,687.526C404.146,677.6 398.38,663.174 394.074,646.703C388.095,623.835 384.822,596.835 385.973,572.489C387.064,549.407 392.158,528.573 402.707,515.554ZM615.527,845.12C620.72,846.711 626.672,847.317 632.812,846.794C638.032,846.348 643.363,845.083 648.452,842.91C645.447,837.99 641.656,833.722 637.464,830.255C632.616,826.245 627.256,823.324 621.979,821.721C618.742,824.218 615.321,826.224 611.853,827.645C609.737,828.512 607.6,829.165 605.472,829.584L605.74,829.853C609.736,833.91 613.105,839.162 615.527,845.12ZM618.753,815.439C618.894,815.299 619.047,815.172 619.21,815.059C620.553,813.926 621.858,812.691 623.11,811.363C627.9,806.28 631.887,799.863 634.289,792.638C626.786,791.299 619.243,791.736 612.495,793.519C606.558,795.087 601.263,797.684 597.185,801.009C593.3,804.177 590.549,807.998 589.482,812.18C588.898,814.468 588.815,816.885 589.324,819.38C591.275,821.021 593.433,822.101 595.712,822.677C599.903,823.738 604.579,823.145 609.222,821.242C612.478,819.907 615.71,817.936 618.753,815.439ZM627.837,816.447C632.696,818.411 637.493,821.275 641.887,824.91C647.623,829.655 652.705,835.739 656.372,842.87C657.248,844.57 656.58,846.66 654.879,847.536C647.986,851.101 640.582,853.099 633.382,853.713C628.085,854.164 622.877,853.868 618.04,852.896C619.782,859.996 620.252,867.745 619.032,875.501C618.74,877.389 616.972,878.683 615.084,878.39C605.066,876.837 595.909,872.597 588.662,866.948C583.05,862.576 578.553,857.327 575.653,851.797C572.649,846.067 571.344,840.006 572.241,834.221C572.594,831.938 573.288,829.712 574.35,827.58C532.74,814.713 502.705,795.578 476.816,778.184C475.182,782.125 472.822,785.547 470.007,788.22C466.734,791.331 462.825,793.448 458.692,794.229C454.459,795.029 450.035,794.432 445.845,792.09C443.826,790.96 441.874,789.43 440.043,787.459C438.919,789.939 437.338,792.431 435.404,794.652C432.845,797.59 429.632,800.138 426.006,801.659C422.197,803.257 417.963,803.734 413.563,802.402C408.675,800.923 403.683,797.2 399.039,790.24C397.112,787.353 395.514,784.181 394.2,780.819C393.952,780.984 393.696,781.148 393.435,781.312C389.685,783.66 384.481,785.962 378.94,786.494C373.099,787.056 366.935,785.71 361.66,780.606L361.666,780.599C360.18,779.16 358.791,777.455 357.537,775.451L357.546,775.445C354.947,771.289 353.564,765.836 353.007,759.803C352.5,754.3 352.662,748.3 353.194,742.39C320.672,750.92 285.066,770.179 246.791,790.884C175.734,829.324 95.585,872.683 6.895,863.168C4.992,862.965 3.614,861.258 3.816,859.356C4.018,857.453 5.725,856.074 7.628,856.276C94.179,865.562 173.333,822.742 243.508,784.779C272.641,769.02 300.244,754.087 326.349,743.944C325.92,743.982 325.49,744.003 325.062,744.008C322.418,744.037 319.831,743.446 317.457,742.319C315.111,741.205 312.959,739.564 311.152,737.483C310.681,736.938 310.232,736.363 309.809,735.76C307.456,736.594 305.046,736.788 302.709,736.438L302.575,736.42C300.201,736.045 297.923,735.102 295.892,733.703C293.914,732.339 292.161,730.536 290.776,728.395C288.158,724.35 286.826,719.085 287.738,713.32C288.156,710.677 288.9,708.201 289.914,705.883C262.036,712.825 235.228,721.485 209.016,729.953C146.969,749.995 88.212,768.977 26.508,761.922C24.606,761.705 23.239,759.985 23.456,758.083C23.672,756.18 25.392,754.814 27.295,755.03C87.536,761.918 145.592,743.163 206.9,723.359C235.479,714.128 264.762,704.667 295.283,697.44C296.57,695.938 297.98,694.528 299.485,693.206C305.057,688.308 311.95,684.625 318.699,681.962C303.319,671.169 287.572,656.685 274.221,639.455C260.832,622.178 249.83,602.115 243.973,580.208C227.826,588.317 211.856,592.844 196.712,594.885C169.418,598.564 144.822,594.149 126.667,588.101C108.036,581.895 95.734,573.491 93.986,570.24L93.986,570.226C93.701,569.692 93.518,569.154 93.445,568.611C92.694,563.038 102.493,561.411 117.855,558.861L118.393,558.771C104.529,553.771 92.934,547.224 83.908,540.816C68.951,530.197 60.743,519.164 60.587,515.889C60.571,515.554 60.584,515.254 60.625,514.987L60.636,514.989L60.638,514.973C61.505,509.405 71.351,510.633 86.785,512.556C88.929,512.823 91.192,513.106 93.476,513.382C79.723,501.917 69.76,489.674 63.006,479.154C54.017,465.153 50.647,453.456 51.407,450.366C51.538,449.831 51.755,449.34 52.056,448.895C55.035,444.515 63.517,449.553 76.813,457.454C79.322,458.945 82.026,460.551 84.823,462.192C82.578,459.195 80.476,456.197 78.51,453.21C64.291,431.6 57.149,410.527 53.967,394.135C50.69,377.249 51.737,364.748 53.575,361.464L53.581,361.467C54.01,360.703 54.543,360.108 55.163,359.699L55.176,359.699C59.775,356.675 66.243,365.308 76.381,378.847C78.882,382.187 81.656,385.89 85.162,390.466C89.905,396.653 95.24,403.012 101.078,409.327C102.286,410.633 103.521,411.943 104.78,413.255C98.79,399.433 94.84,386.055 92.405,373.458C87.57,348.432 88.713,326.448 91.716,310.12C94.695,293.919 99.77,282.88 102.744,279.746C102.833,279.643 102.928,279.544 103.03,279.449C103.815,278.729 104.657,278.277 105.536,278.107C111.388,276.977 114.927,291.286 120.201,312.614L121.549,318.056C139.835,391.673 170.269,414.282 206.577,441.255L210.038,443.828C209.237,441.285 208.668,438.714 208.35,436.121C203.718,398.406 226.671,348.264 232.207,336.848C224.053,329.259 194.073,298.607 195.717,259.457C195.757,258.554 196.144,257.665 196.871,257.015C198.294,255.742 200.481,255.863 201.754,257.286C235.243,294.664 259.362,290.485 284.326,286.16C303.326,282.868 322.787,279.499 346.957,292.166C374.94,279.52 397.5,282.872 419.525,286.147C448.883,290.51 477.245,294.727 516.54,257.096C517.919,255.771 520.112,255.813 521.438,257.191C522.043,257.82 522.363,258.62 522.401,259.43L522.404,259.523C524.262,298.644 489.618,329.203 479.972,336.929C486.71,348.9 513.041,398.65 507.668,436.189C505.457,451.637 493.246,466.275 475.445,478.747C478.085,481.172 480.546,483.754 482.834,486.476C501.587,508.784 508.368,540.212 505.996,571.421C503.635,602.482 492.191,633.452 474.466,655.009C470.797,659.47 466.846,663.542 462.639,667.14C460.162,671.249 457.562,674.885 454.9,678.162C456.646,678.93 458.469,679.751 460.342,680.628C463.51,682.112 466.65,683.685 469.465,685.303C484.781,685.158 497.484,684.796 508.153,684.176C524.799,683.208 536.316,681.612 544.965,679.219C558.805,675.39 565.322,649.489 569.772,631.801L570.189,630.139C568.553,630.419 566.913,630.513 565.278,630.434C559.427,630.154 553.748,627.659 548.736,623.566C543.898,619.616 539.657,614.154 536.495,607.773C532.418,599.545 530.102,589.728 530.587,579.606C530.677,577.695 532.299,576.22 534.209,576.309L534.285,576.313C544.379,576.793 553.907,580.017 561.699,584.836L562.101,585.088C563.046,579.942 564.88,574.681 567.546,569.661C571.043,563.078 575.992,556.861 582.26,551.823C583.75,550.625 585.931,550.862 587.13,552.352C592.034,558.428 595.49,565.35 597.532,572.355C599.005,577.405 599.744,582.506 599.764,587.374C606.356,584.248 613.83,582.233 621.643,581.862L621.718,581.857C623.629,581.768 625.251,583.243 625.341,585.154C625.826,595.277 623.51,605.094 619.433,613.321C616.271,619.702 612.03,625.164 607.192,629.115C602.18,633.208 596.5,635.703 590.649,635.984C588.445,636.089 586.229,635.881 584.029,635.329L583.905,637.001C583.441,643.282 582.934,650.113 582.819,656.011L582.818,656.024C582.64,665.165 582.988,672.596 584.922,672.633L584.935,672.634C620.345,673.327 655.663,684.213 681.905,692.388C681.646,690.974 681.526,689.554 681.536,688.131C681.576,682.269 683.835,676.488 687.719,671.311C691.47,666.312 696.747,661.85 702.979,658.435C711.029,654.024 720.743,651.305 730.883,651.373C732.793,651.381 734.336,652.936 734.329,654.847C734.281,664.995 731.453,674.678 726.954,682.67L726.716,683.088C731.92,683.825 737.281,685.456 742.431,687.935C749.127,691.158 755.51,695.831 760.774,701.854C762.033,703.293 761.887,705.479 760.448,706.738C754.614,711.859 747.904,715.58 741.058,717.909C736.025,719.621 730.899,720.585 725.975,720.805C729.391,727.295 731.721,734.71 732.403,742.522L732.389,742.524C732.553,744.425 731.144,746.102 729.242,746.266C719.149,747.168 709.244,745.258 700.854,741.523C694.354,738.629 688.726,734.618 684.58,729.947C680.285,725.109 677.558,719.537 677.037,713.696C676.824,711.313 676.979,708.899 677.545,706.489C643.766,701.978 602.591,700.898 565.786,706.59C541.643,710.324 519.426,716.956 502.537,727.425C503.256,732 503.031,736.092 502.104,739.655C501.096,743.524 499.27,746.766 496.917,749.335C503.779,765.315 515.05,777.79 528.378,787.85C544.577,800.079 563.859,808.804 582.049,815.924C582.061,814.06 582.302,812.239 582.753,810.471C584.201,804.802 587.789,799.736 592.817,795.636C597.652,791.693 603.849,788.636 610.731,786.818C619.62,784.47 629.704,784.166 639.516,786.67C641.374,787.142 642.498,789.031 642.026,790.889L641.983,791.043C639.481,800.804 634.423,809.463 628.157,816.111L627.837,816.447ZM581.762,828.608C580.312,830.706 579.438,832.956 579.078,835.279C578.417,839.542 579.449,844.142 581.785,848.596C584.225,853.251 588.075,857.718 592.922,861.494C598.432,865.79 605.199,869.158 612.621,870.873C613.249,863.288 612.101,855.816 609.69,849.252C607.572,843.484 604.491,838.454 600.802,834.71C597.273,831.129 593.212,828.743 588.962,828.075C586.637,827.71 584.218,827.858 581.762,828.608ZM717.116,719.431C716.963,719.25 716.828,719.051 716.715,718.841C713.334,713.965 709.246,709.986 704.884,707.313C700.601,704.689 696.08,703.356 691.776,703.731C689.42,703.936 687.113,704.654 684.934,705.953C684.026,708.345 683.718,710.749 683.928,713.099C684.311,717.386 686.421,721.599 689.762,725.362C693.251,729.293 698.063,732.703 703.676,735.201C710.056,738.041 717.429,739.682 725.043,739.564C723.839,732.096 720.974,725.176 717.116,719.431ZM721.667,713.873C727.089,714.166 733.007,713.325 738.833,711.344C743.8,709.654 748.679,707.139 753.103,703.797C749.009,699.755 744.313,696.53 739.42,694.175C733.737,691.44 727.821,689.888 722.31,689.601C719.767,692.806 716.928,695.578 713.902,697.794C712.059,699.144 710.143,700.29 708.177,701.208L708.492,701.399C713.342,704.37 717.874,708.661 721.667,713.873ZM681.383,700.017C681.582,699.899 681.78,699.784 681.98,699.671L680.754,699.291C654.803,691.205 619.59,680.233 584.8,679.552C577.338,679.394 575.648,668.841 575.9,655.889C576.025,649.479 576.526,642.726 576.986,636.513C577.118,634.733 577.247,632.986 577.356,631.439L577.122,631.017L576.5,633.484C571.65,652.759 564.549,680.987 546.81,685.894C537.674,688.421 525.692,690.097 508.532,691.094C497.803,691.719 484.974,692.08 469.463,692.225C468.964,692.344 468.438,692.351 467.925,692.238C459.772,692.305 450.888,692.316 441.19,692.273C439.278,693.98 437.392,695.603 435.554,697.184L434.636,697.975C434.485,698.103 434.327,698.217 434.163,698.315C434.094,698.454 434.025,698.59 433.956,698.722C433.845,700.539 432.335,701.979 430.49,701.979L430.485,701.969L430.322,701.965C428.181,701.864 426.083,701.313 424.037,700.354C422.758,702.944 421.847,706.285 421.495,709.807C421.062,714.129 421.492,718.618 423.14,722.192C426.128,728.669 425.923,734.364 423.89,738.586C440.802,745.507 456.776,756.291 474.483,768.245C501.025,786.165 531.533,806.76 574.476,820.368C557.323,813.428 539.515,804.947 524.2,793.385C509.429,782.236 497.01,768.264 489.736,750.136C489.616,749.911 489.523,749.675 489.457,749.435C487.6,744.696 486.095,739.675 484.988,734.349C484.751,733.18 485.12,731.918 486.073,731.066C504.679,714.394 533.203,704.629 564.729,699.753C603.332,693.783 646.545,695.103 681.383,700.017ZM688.455,688.159C688.439,690.511 688.943,692.878 690.045,695.188C692.346,696.319 694.702,696.852 697.046,696.863C701.352,696.882 705.746,695.178 709.805,692.205C714.047,689.098 717.893,684.628 720.904,679.278C724.337,673.181 726.667,665.987 727.261,658.401C719.664,658.909 712.446,661.153 706.316,664.512C700.922,667.468 696.405,671.262 693.255,675.461C690.238,679.483 688.483,683.855 688.455,688.159ZM598.639,595.802C598.129,596.484 597.377,596.961 596.53,597.128C591.912,600.199 588.087,603.903 585.408,607.895C582.607,612.07 581.086,616.535 581.283,620.849C581.391,623.196 582.016,625.526 583.231,627.766C585.584,628.771 587.97,629.177 590.324,629.065C594.629,628.858 598.927,626.925 602.823,623.743C606.893,620.419 610.495,615.755 613.221,610.255C616.324,603.992 618.269,596.687 618.462,589.071C611.223,589.936 604.419,592.372 598.639,595.802ZM592.65,591.398C593.168,586.024 592.589,580.126 590.885,574.282C589.406,569.21 587.08,564.182 583.886,559.574C579.663,563.514 576.237,568.098 573.677,572.917C570.73,578.468 568.948,584.291 568.437,589.764C571.534,592.435 574.185,595.384 576.272,598.495C577.545,600.393 578.612,602.356 579.448,604.356L579.656,604.042C582.825,599.32 587.294,594.97 592.65,591.398ZM563.285,594.468C562.859,594.25 562.486,593.948 562.185,593.584C560.887,592.576 559.51,591.619 558.063,590.723C552.119,587.047 545.03,584.427 537.466,583.523C537.659,591.139 539.604,598.443 542.707,604.707C545.433,610.206 549.035,614.871 553.105,618.194C557,621.375 561.299,623.309 565.604,623.516C567.957,623.629 570.344,623.223 572.697,622.217C573.912,619.977 574.536,617.647 574.645,615.3C574.842,610.986 573.321,606.522 570.52,602.348C568.636,599.538 566.183,596.872 563.285,594.468ZM327.471,456.655C327.411,457.314 327.172,457.911 326.804,458.405C326.531,461.981 326.221,465.043 325.927,467.277L326.241,467.201C327.719,466.838 329.549,466.065 331.57,464.857C338.599,460.659 347.347,451.6 351.52,436.765C329.062,437.116 327.476,456.597 327.471,456.655ZM327.583,439.806C332.281,434.276 340.091,429.532 353.047,429.821C353.128,429.317 353.207,428.809 353.278,428.294C347.452,428.564 342.058,426.159 336.601,423.727C333.315,422.262 330,420.785 326.646,420.138C327.372,425.952 327.62,432.751 327.585,439.461L327.583,439.806ZM360.427,427.005C357.838,450.844 345.013,464.893 335.125,470.799C332.478,472.381 329.986,473.416 327.896,473.929C325.251,474.579 322.958,474.426 321.357,473.537C320.388,472.999 319.665,472.294 319.223,471.429C318.344,476.355 319.112,478.387 320.809,478.712C323.815,479.288 328.936,477.552 334.502,475.174C343.915,471.153 352.055,462.746 358.731,453.159C369.4,437.842 376.24,419.67 378.805,410.952C379.632,408.141 379.68,406.098 379.2,404.655C378.944,403.887 378.502,403.277 377.937,402.802C377.287,402.257 376.454,401.86 375.523,401.586C372.229,400.617 368.049,401.126 365.293,402.045C360.276,403.718 355.929,401.865 351.958,398.131C348.617,394.99 345.586,390.478 342.624,385.793C339.973,381.605 335.892,375.848 330.401,372.304C325.249,368.981 318.649,367.594 310.472,371.525C309.437,372.023 308.412,372.639 307.407,373.356C300.821,378.063 295.862,386.805 293.435,396.327C291.002,405.865 291.148,416.034 294.774,423.576C295.325,424.722 295.971,425.823 296.713,426.861C298.981,430.034 299.058,431.381 299.282,431.221C299.52,431.05 300.081,429.973 300.711,428.76C301.387,427.461 302.121,426.05 303.153,424.644C316.106,407.009 327.903,412.268 339.423,417.405C344.174,419.523 348.869,421.616 353.126,421.362C363.287,420.756 366.149,414.322 366.157,414.304C366.973,412.573 369.039,411.832 370.77,412.649C372.5,413.466 373.241,415.531 372.425,417.261C372.414,417.284 369.377,424.065 360.427,427.005ZM313.417,423.628C311.87,424.926 310.312,426.604 308.742,428.74C308.067,429.66 307.444,430.858 306.87,431.962C305.841,433.942 304.926,435.7 303.298,436.863C300.029,439.201 296.462,438.419 291.07,430.876C290.118,429.544 289.272,428.098 288.533,426.561C287.008,423.387 285.984,419.869 285.417,416.166C280.337,423.846 273.325,428.559 265.479,428.559C257.363,428.559 250.139,423.515 245.023,415.362C240.204,407.681 237.221,397.148 237.221,385.588C237.221,374.028 240.204,363.495 245.023,355.814C250.139,347.661 257.363,342.617 265.479,342.617C273.595,342.617 280.819,347.661 285.935,355.814C289.784,361.947 292.46,369.898 293.383,378.739C296.157,374.289 299.533,370.472 303.392,367.713C304.683,366.791 306.05,365.976 307.487,365.285C318.327,360.073 327.182,361.979 334.144,366.471C340.768,370.745 345.467,377.334 348.484,382.104C351.188,386.38 353.921,390.465 356.706,393.084C358.86,395.109 361.006,396.184 363.121,395.479C366.907,394.217 372.738,393.546 377.476,394.939C377.997,395.093 378.508,395.27 379.005,395.473C378.608,392.741 378.4,389.926 378.4,387.051C378.4,374.451 382.385,362.996 388.827,354.663C395.464,346.079 404.705,340.768 414.972,340.768C425.239,340.768 434.479,346.079 441.117,354.663C447.56,362.995 451.545,374.451 451.545,387.051C451.545,399.651 447.559,411.106 441.117,419.438C434.479,428.022 425.239,433.333 414.972,433.333C404.706,433.333 395.465,428.022 388.827,419.438C387.495,417.715 386.268,415.858 385.159,413.884C383.288,420.008 379.676,429.819 374.441,440.176C379.751,443.035 383.768,445.541 384.676,446.113L384.9,446.247C389.034,448.941 393.473,451.045 398.131,452.457C402.605,453.814 407.329,454.536 412.23,454.536C427.831,454.536 441.986,447.066 452.258,434.989C462.667,422.75 469.106,405.804 469.106,387.054C469.106,368.304 462.667,351.358 452.258,339.119C441.986,327.043 427.831,319.572 412.23,319.572C406.939,319.572 401.82,320.429 396.972,322.029C391.968,323.681 387.257,326.111 382.941,329.195L382.786,329.311C382.706,329.367 354.875,348.898 345.433,348.269C336.049,347.644 316.371,330.912 316.314,330.865L316.274,330.825C312.131,327.205 307.549,324.347 302.652,322.412C297.978,320.566 293.016,319.572 287.876,319.572C273.854,319.572 261.102,326.996 251.823,338.997C242.348,351.251 236.487,368.24 236.487,387.054C236.487,405.869 242.348,422.857 251.823,435.111C261.102,447.112 273.854,454.536 287.876,454.536C293.211,454.536 298.068,453.544 302.591,451.733C306.731,450.075 310.631,447.725 314.392,444.817C314.405,443.648 314.41,442.484 314.406,441.328C314.383,434.423 314.066,427.949 313.417,423.628ZM371.19,446.281C369.132,449.948 366.877,453.607 364.43,457.12C357.101,467.643 348.008,476.939 337.215,481.549C330.561,484.392 324.177,486.417 319.506,485.522C313.593,484.388 310.497,479.862 312.523,469.51C313.288,465.599 313.838,459.806 314.139,453.481C311.261,455.343 308.282,456.917 305.169,458.163C299.814,460.308 294.104,461.483 287.876,461.483C271.599,461.483 256.918,453.022 246.343,439.344C235.962,425.918 229.541,407.427 229.541,387.054C229.541,366.682 235.962,348.19 246.343,334.764C256.918,321.087 271.599,312.626 287.876,312.626C293.904,312.626 299.723,313.791 305.202,315.956C310.722,318.137 315.903,321.349 320.605,325.418C320.729,325.509 320.847,325.607 320.958,325.714C322.77,327.237 339.204,340.904 345.893,341.35C352.908,341.818 378.724,323.692 378.798,323.64L378.968,323.528C383.869,320.033 389.185,317.29 394.801,315.436C400.346,313.605 406.193,312.626 412.23,312.626C429.958,312.626 445.98,321.039 457.549,334.642C468.981,348.083 476.053,366.616 476.053,387.054C476.053,407.492 468.981,426.025 457.549,439.466C445.98,453.069 429.958,461.483 412.23,461.483C406.7,461.483 401.3,460.647 396.123,459.077C390.826,457.471 385.805,455.098 381.154,452.069C381.139,452.061 376.973,449.394 371.19,446.281ZM346.87,299.441C346.273,299.461 345.664,299.327 345.102,299.021C322.389,286.605 303.715,289.84 285.493,292.997C260.199,297.379 235.71,301.617 202.842,268.523C206.083,305.927 238.634,333.316 238.735,333.402C239.975,334.462 240.28,336.211 239.57,337.605C239.493,337.771 210.251,394.646 215.241,435.28C215.98,441.299 218.32,447.23 221.944,452.96C222.074,453.128 222.187,453.306 222.283,453.491C229.872,465.211 242.819,476.072 258.418,485.114C258.526,485.17 258.63,485.23 258.73,485.295L258.896,485.392C285.419,500.65 319.3,510.497 347.853,510.497C381.172,510.497 420.079,500.682 450.496,485.458C477.82,471.783 498.129,453.905 500.804,435.212C506.466,395.649 474.119,340.555 472.555,337.918C471.561,336.389 471.925,334.33 473.414,333.239C473.531,333.153 512.076,305.329 515.331,267.612C476.656,301.649 448.064,297.402 418.521,293.01C397.107,289.827 375.164,286.565 348.404,299.116C347.907,299.348 347.384,299.451 346.87,299.441ZM216.667,457.499C211.834,453.785 207.095,450.265 202.453,446.816C165.054,419.034 133.707,395.746 114.82,319.711L113.473,314.27C109.606,298.633 107.825,287.411 107.066,285.284C104.774,288.347 101.067,297.551 98.525,311.369C95.65,327 94.563,348.082 99.215,372.155C105.056,402.378 119.954,437.275 151.725,471.963C153.014,473.371 152.916,475.558 151.508,476.846C150.1,478.135 147.913,478.038 146.624,476.629C132.906,461.652 122.236,446.623 114.02,431.915C107.644,426.11 101.612,420.086 96.005,414.021C89.928,407.446 84.45,400.929 79.655,394.672C76.751,390.882 73.648,386.739 70.846,382.998C63.909,373.734 60.555,366.592 59.326,365.576C58.249,368.915 58.064,378.851 60.777,392.833C63.823,408.524 70.664,428.704 84.29,449.411C89.189,456.856 94.966,464.371 101.762,471.771C101.826,471.836 101.887,471.903 101.945,471.971C115.005,486.152 131.809,499.911 153.339,511.96C155.009,512.897 155.605,515.011 154.668,516.681C153.732,518.351 151.617,518.947 149.947,518.01C127.924,505.684 110.665,491.586 97.193,477.026C95.189,476.007 93.084,474.874 91.005,473.721C88.664,472.424 86.554,471.215 84.677,470.128C80.409,467.655 76.665,465.43 73.286,463.422C64.341,458.106 59.459,452.863 58.096,452.665C58.245,455.522 61.59,464.119 68.839,475.41C76.669,487.606 89.014,502.226 106.87,514.995C107.399,515.202 107.861,515.534 108.224,515.953C108.76,516.328 109.303,516.702 109.849,517.074C124.112,526.771 141.71,535.232 163.119,540.495C164.977,540.952 166.112,542.829 165.655,544.687C165.199,546.545 163.321,547.68 161.463,547.224C139.205,541.751 120.863,532.924 105.969,522.799C105.361,522.386 104.76,521.97 104.164,521.553L102.108,521.348L99.087,521.021C93.946,520.445 89.742,519.921 85.944,519.448C75.195,518.109 68.427,515.276 67.566,515.888C68.288,518.345 75.378,526.266 87.924,535.173C99.258,543.22 114.844,551.494 134.032,556.322C134.128,556.342 134.223,556.365 134.316,556.393C138.26,557.377 142.356,558.215 146.597,558.875C155.544,560.268 165.157,560.87 175.381,560.383C177.292,560.294 178.914,561.77 179.003,563.68C179.093,565.59 177.617,567.213 175.707,567.302C165.021,567.81 154.944,567.177 145.539,565.713C141.293,565.052 137.187,564.22 133.224,563.25L132.025,563.465L132.025,563.479C128.063,564.187 123.277,564.982 118.967,565.698C108.641,567.413 101.488,566.752 100.441,567.451C102.714,570.124 113.027,576.269 128.838,581.536C146.193,587.317 169.704,591.537 195.79,588.021C210.668,586.016 226.395,581.484 242.307,573.278C240.588,565.217 239.579,556.927 239.414,548.452L239.414,548.439C239.045,529.523 242.869,509.725 252.335,489.55C237.155,480.382 224.507,469.437 216.667,457.499ZM435.637,358.897C430.295,351.988 422.985,347.714 414.972,347.714C406.96,347.714 399.648,351.988 394.307,358.897C388.771,366.057 385.346,376.008 385.346,387.051C385.346,398.093 388.771,408.044 394.307,415.205C399.649,422.113 406.96,426.387 414.972,426.387C422.984,426.387 430.295,422.113 435.637,415.205C441.173,408.044 444.598,398.093 444.598,387.051C444.598,376.008 441.173,366.057 435.637,358.897ZM280.074,359.504C276.221,353.362 271.05,349.563 265.479,349.563C259.908,349.563 254.737,353.362 250.884,359.504C246.735,366.117 244.168,375.334 244.168,385.588C244.168,395.842 246.735,405.06 250.884,411.672C254.737,417.814 259.908,421.613 265.479,421.613C271.05,421.613 276.221,417.814 280.074,411.672C284.223,405.06 286.791,395.842 286.791,385.588C286.791,375.334 284.223,366.117 280.074,359.504ZM450.119,683.634C449.565,684.227 449.009,684.807 448.452,685.376C450.366,685.38 452.246,685.38 454.093,685.379C452.76,684.783 451.423,684.198 450.119,683.634ZM496.028,731.855C494.71,732.841 493.433,733.855 492.202,734.899C492.727,737.167 493.333,739.372 494.012,741.521C494.591,740.429 495.063,739.226 495.403,737.918C495.876,736.102 496.103,734.08 496.028,731.855ZM470.909,774.204L470.603,773.997C456.606,764.547 443.714,755.844 430.746,749.337C432.035,753.948 433.461,758.469 434.968,762.689C437.07,768.574 439.303,773.778 441.508,777.694C443.823,781.802 446.469,784.508 449.209,786.04C451.897,787.543 454.723,787.929 457.417,787.419C460.212,786.891 462.913,785.404 465.232,783.201C467.663,780.891 469.658,777.807 470.909,774.204ZM422.575,745.552C421.402,745.056 420.226,744.578 419.047,744.124C418.759,744.311 418.463,744.486 418.162,744.65C416.175,745.729 413.927,746.294 411.593,746.269C410.327,746.255 409.037,746.069 407.752,745.699C405.508,748.427 402.759,750.262 399.79,751.254C398.467,751.696 397.105,751.968 395.729,752.076C396.027,758.278 396.776,764.609 398.227,770.552C398.507,771.696 398.813,772.826 399.146,773.935C399.178,774.026 399.206,774.118 399.23,774.211C400.591,778.669 402.406,782.813 404.79,786.388C408.441,791.858 412.116,794.71 415.572,795.755C418.276,796.574 420.918,796.264 423.321,795.256C425.908,794.171 428.256,792.289 430.168,790.093C433.005,786.836 434.822,783.063 435.012,780.28C432.751,776.115 430.513,770.857 428.429,765.023C426.295,759.043 424.291,752.355 422.575,745.552ZM388.765,751.238C387.316,750.772 385.898,750.125 384.543,749.305C383.926,748.931 383.322,748.52 382.734,748.074C380.713,749.618 378.427,750.549 376.044,750.92C373.657,751.291 371.207,751.096 368.862,750.391C366.562,749.701 364.338,748.517 362.358,746.9C361.515,746.211 360.715,745.443 359.972,744.6C359.575,749.643 359.481,754.65 359.898,759.18C360.363,764.214 361.439,768.639 363.411,771.789L363.424,771.789C364.403,773.352 365.427,774.625 366.476,775.64L366.489,775.64C370.05,779.086 374.27,779.989 378.289,779.603C382.612,779.188 386.756,777.34 389.772,775.451C390.598,774.934 391.33,774.419 391.949,773.934C391.792,773.352 391.643,772.768 391.499,772.18C389.845,765.408 389.041,758.214 388.765,751.238ZM391.673,744.875C391.804,744.858 391.937,744.847 392.073,744.844C392.631,744.834 393.161,744.956 393.633,745.182C394.983,745.273 396.325,745.111 397.593,744.688C399.003,744.217 400.344,743.411 401.533,742.256C400.002,740.932 398.568,739.26 397.294,737.213C393.633,731.324 392.378,725.794 392.361,720.735C392.344,715.778 393.515,711.428 394.748,707.653C395.339,705.833 397.296,704.837 399.116,705.428C400.937,706.02 401.932,707.976 401.341,709.797C400.277,713.054 399.266,716.763 399.28,720.735C399.293,724.608 400.286,728.893 403.181,733.551C405.675,737.56 408.836,739.319 411.647,739.35C412.799,739.363 413.897,739.09 414.851,738.572C415.807,738.054 416.638,737.28 417.258,736.293C418.827,733.797 419.07,729.916 416.846,725.095C414.652,720.337 414.059,714.571 414.604,709.128C415.07,704.467 416.389,699.961 418.262,696.463C417.15,695.476 416.053,694.359 414.974,693.119C410.14,695.773 404.54,698.092 398.026,699.858C391.337,701.671 383.647,702.904 374.792,703.316C370.293,707.622 366.288,712.606 363.857,718.037C361.84,722.544 360.902,727.384 361.685,732.419C362.189,735.661 364.224,739.483 366.727,741.527C367.989,742.559 369.397,743.31 370.842,743.744C372.242,744.165 373.659,744.289 374.986,744.082C375.996,743.925 376.978,743.572 377.887,743.011C376.538,741.084 375.409,738.871 374.578,736.384C369.603,721.497 375.952,710.078 377.382,707.623L377.527,707.368C378.404,705.667 380.493,704.999 382.194,705.875C383.894,706.752 384.562,708.841 383.686,710.542L383.357,711.109C382.187,713.122 377.154,722.247 381.144,734.186C381.988,736.712 383.226,738.83 384.712,740.514L384.872,740.636C385.157,740.868 385.395,741.136 385.586,741.428C386.383,742.196 387.236,742.852 388.124,743.39C389.261,744.078 390.459,744.577 391.673,744.875ZM300.368,702.176C300.167,702.547 299.898,702.881 299.575,703.158C297.043,706.433 295.245,710.169 294.575,714.405C293.95,718.359 294.833,721.922 296.582,724.624C297.472,725.999 298.583,727.148 299.826,728.005C301.014,728.824 302.322,729.37 303.661,729.582L303.753,729.598C304.735,729.74 305.746,729.7 306.751,729.452C306.059,727.204 305.663,724.746 305.633,722.118C305.454,706.037 315.486,697.064 317.255,695.482C317.302,695.44 317.15,695.579 317.317,695.412C318.673,694.056 320.872,694.056 322.228,695.412C323.584,696.768 323.584,698.966 322.228,700.322C322.132,700.417 322.12,700.411 321.868,700.637C320.45,701.905 312.407,709.099 312.552,722.064C312.582,724.723 313.117,727.119 314.021,729.179L314.128,729.334C314.324,729.636 314.466,729.957 314.559,730.285C315.085,731.268 315.701,732.16 316.388,732.951C317.553,734.294 318.928,735.346 320.414,736.051C321.873,736.744 323.436,737.106 325.008,737.089C326.486,737.072 328.003,736.715 329.488,735.977C328.438,734.248 327.585,732.217 327,729.879C325.319,723.155 325.819,717.512 327.349,712.697C328.857,707.953 331.304,704.17 333.633,700.955C334.757,699.404 336.926,699.057 338.476,700.181C340.027,701.305 340.374,703.473 339.25,705.024C337.239,707.8 335.14,711.019 333.942,714.787C332.767,718.484 332.398,722.872 333.729,728.196C334.873,732.775 337.35,735.419 340.023,736.312C341.106,736.673 342.231,736.747 343.305,736.545C344.367,736.346 345.392,735.864 346.287,735.113C348.542,733.22 349.96,729.598 349.32,724.322C348.589,718.296 349.783,712.463 352.126,707.66C353.308,705.233 354.797,703.052 356.495,701.222C351.249,699.717 345.576,697.469 339.66,694.54C335.19,692.326 330.561,689.714 325.855,686.737C318.388,689.193 310.25,692.984 304.07,698.416C302.733,699.59 301.489,700.843 300.368,702.176ZM365.428,703.114L365.191,703.083C362.529,704.459 360.076,707.192 358.366,710.699C357.181,713.13 356.378,715.906 356.129,718.842C356.533,717.613 357.004,716.403 357.536,715.215C359.487,710.855 362.247,706.8 365.428,703.114ZM67.482,516.006L67.479,516.016L67.482,516.006Z" style="fill:rgb(69,13,1);fill-rule:nonzero;"/>
            <path d="M67.482,516.006L67.479,516.016L67.482,516.006Z" style="fill:rgb(237,122,59);fill-rule:nonzero;"/>
            <path d="M365.428,703.114L365.191,703.083C362.529,704.459 360.076,707.192 358.366,710.699C357.181,713.13 356.378,715.906 356.129,718.842C356.533,717.613 357.004,716.403 357.536,715.215C359.487,710.855 362.247,706.8 365.428,703.114ZM681.383,700.017C681.582,699.899 681.78,699.784 681.98,699.671L680.754,699.291C654.803,691.205 619.59,680.233 584.8,679.552C577.338,679.394 575.648,668.841 575.9,655.889C576.025,649.479 576.526,642.726 576.986,636.513C577.118,634.733 577.247,632.986 577.356,631.439L577.122,631.017L576.5,633.484C571.65,652.759 564.549,680.987 546.81,685.894C537.674,688.421 525.692,690.097 508.532,691.094C497.803,691.719 484.974,692.08 469.463,692.225C468.964,692.344 468.438,692.351 467.925,692.238C459.772,692.305 450.888,692.316 441.19,692.273C439.278,693.98 437.392,695.603 435.554,697.184L434.636,697.975C434.485,698.103 434.327,698.217 434.163,698.315C434.094,698.454 434.025,698.59 433.956,698.722C433.845,700.539 432.335,701.979 430.49,701.979L430.485,701.969L430.322,701.965C428.181,701.864 426.083,701.313 424.037,700.354C422.758,702.944 421.847,706.285 421.495,709.807C421.062,714.129 421.492,718.618 423.14,722.192C426.128,728.669 425.923,734.364 423.89,738.586C440.802,745.507 456.776,756.291 474.483,768.245C501.025,786.165 531.533,806.76 574.476,820.368C557.323,813.428 539.515,804.947 524.2,793.385C509.429,782.236 497.01,768.264 489.736,750.136C489.616,749.911 489.523,749.675 489.457,749.435C487.6,744.696 486.095,739.675 484.988,734.349C484.751,733.18 485.12,731.918 486.073,731.066C504.679,714.394 533.203,704.629 564.729,699.753C603.332,693.783 646.545,695.103 681.383,700.017Z" style="fill:rgb(138,71,52);fill-rule:nonzero;"/>
            <path d="M421.816,707.462C509.279,692.945 616.743,684.178 681.98,699.671C681.78,699.784 681.582,699.899 681.383,700.017C646.545,695.103 603.332,693.783 564.729,699.753C533.203,704.629 504.679,714.394 486.073,731.066C485.12,731.918 484.751,733.18 484.988,734.349C486.095,739.675 487.6,744.696 489.457,749.435C489.523,749.675 489.616,749.911 489.736,750.136C497.01,768.264 509.429,782.236 524.2,793.385C539.515,804.947 557.323,813.428 574.476,820.368C531.533,806.76 501.025,786.165 474.483,768.245C456.776,756.291 440.802,745.507 423.89,738.586C425.923,734.364 426.128,728.669 423.14,722.192C421.492,718.618 421.062,714.129 421.495,709.807C421.574,709.014 421.682,708.23 421.816,707.462Z" style="fill:rgb(107,55,41);fill-rule:nonzero;"/>
            <path d="M300.368,702.176C300.167,702.547 299.898,702.881 299.575,703.158C297.043,706.433 295.245,710.169 294.575,714.405C293.95,718.359 294.833,721.922 296.582,724.624C297.472,725.999 298.583,727.148 299.826,728.005C301.014,728.824 302.322,729.37 303.661,729.582L303.753,729.598C304.735,729.74 305.746,729.7 306.751,729.452C306.059,727.204 305.663,724.746 305.633,722.118C305.454,706.037 315.486,697.064 317.255,695.482C317.302,695.44 317.15,695.579 317.317,695.412C318.673,694.056 320.872,694.056 322.228,695.412C323.584,696.768 323.584,698.966 322.228,700.322C322.132,700.417 322.12,700.411 321.868,700.637C320.45,701.905 312.407,709.099 312.552,722.064C312.582,724.723 313.117,727.119 314.021,729.179L314.128,729.334C314.324,729.636 314.466,729.957 314.559,730.285C315.085,731.268 315.701,732.16 316.388,732.951C317.553,734.294 318.928,735.346 320.414,736.051C321.873,736.744 323.436,737.106 325.008,737.089C326.486,737.072 328.003,736.715 329.488,735.977C328.438,734.248 327.585,732.217 327,729.879C325.319,723.155 325.819,717.512 327.349,712.697C328.857,707.953 331.304,704.17 333.633,700.955C334.757,699.404 336.926,699.057 338.476,700.181C340.027,701.305 340.374,703.473 339.25,705.024C337.239,707.8 335.14,711.019 333.942,714.787C332.767,718.484 332.398,722.872 333.729,728.196C334.873,732.775 337.35,735.419 340.023,736.312C341.106,736.673 342.231,736.747 343.305,736.545C344.367,736.346 345.392,735.864 346.287,735.113C348.542,733.22 349.96,729.598 349.32,724.322C348.589,718.296 349.783,712.463 352.126,707.66C353.308,705.233 354.797,703.052 356.495,701.222C351.249,699.717 345.576,697.469 339.66,694.54C335.19,692.326 330.561,689.714 325.855,686.737C318.388,689.193 310.25,692.984 304.07,698.416C302.733,699.59 301.489,700.843 300.368,702.176Z" style="fill:rgb(255,169,41);fill-rule:nonzero;"/>
            <path d="M391.673,744.875C391.804,744.858 391.937,744.847 392.073,744.844C392.631,744.834 393.161,744.956 393.633,745.182C394.983,745.273 396.325,745.111 397.593,744.688C399.003,744.217 400.344,743.411 401.533,742.256C400.002,740.932 398.568,739.26 397.294,737.213C393.633,731.324 392.378,725.794 392.361,720.735C392.344,715.778 393.515,711.428 394.748,707.653C395.339,705.833 397.296,704.837 399.116,705.428C400.937,706.02 401.932,707.976 401.341,709.797C400.277,713.054 399.266,716.763 399.28,720.735C399.293,724.608 400.286,728.893 403.181,733.551C405.675,737.56 408.836,739.319 411.647,739.35C412.799,739.363 413.897,739.09 414.851,738.572C415.807,738.054 416.638,737.28 417.258,736.293C418.827,733.797 419.07,729.916 416.846,725.095C414.652,720.337 414.059,714.571 414.604,709.128C415.07,704.467 416.389,699.961 418.262,696.463C417.15,695.476 416.053,694.359 414.974,693.119C410.14,695.773 404.54,698.092 398.026,699.858C391.337,701.671 383.647,702.904 374.792,703.316C370.293,707.622 366.288,712.606 363.857,718.037C361.84,722.544 360.902,727.384 361.685,732.419C362.189,735.661 364.224,739.483 366.727,741.527C367.989,742.559 369.397,743.31 370.842,743.744C372.242,744.165 373.659,744.289 374.986,744.082C375.996,743.925 376.978,743.572 377.887,743.011C376.538,741.084 375.409,738.871 374.578,736.384C369.603,721.497 375.952,710.078 377.382,707.623L377.527,707.368C378.404,705.667 380.493,704.999 382.194,705.875C383.894,706.752 384.562,708.841 383.686,710.542L383.357,711.109C382.187,713.122 377.154,722.247 381.144,734.186C381.988,736.712 383.226,738.83 384.712,740.514L384.872,740.636C385.157,740.868 385.395,741.136 385.586,741.428C386.383,742.196 387.236,742.852 388.124,743.39C389.261,744.078 390.459,744.577 391.673,744.875Z" style="fill:rgb(255,169,41);fill-rule:nonzero;"/>
            <path d="M388.765,751.238C387.316,750.772 385.898,750.125 384.543,749.305C383.926,748.931 383.322,748.52 382.734,748.074C380.713,749.618 378.427,750.549 376.044,750.92C373.657,751.291 371.207,751.096 368.862,750.391C366.562,749.701 364.338,748.517 362.358,746.9C361.515,746.211 360.715,745.443 359.972,744.6C359.575,749.643 359.481,754.65 359.898,759.18C360.363,764.214 361.439,768.639 363.411,771.789L363.424,771.789C364.403,773.352 365.427,774.625 366.476,775.64L366.489,775.64C370.05,779.086 374.27,779.989 378.289,779.603C382.612,779.188 386.756,777.34 389.772,775.451C390.598,774.934 391.33,774.419 391.949,773.934C391.792,773.352 391.643,772.768 391.499,772.18C389.845,765.408 389.041,758.214 388.765,751.238Z" style="fill:rgb(181,63,0);fill-rule:nonzero;"/>
            <path d="M422.575,745.552C421.402,745.056 420.226,744.578 419.047,744.124C418.759,744.311 418.463,744.486 418.162,744.65C416.175,745.729 413.927,746.294 411.593,746.269C410.327,746.255 409.037,746.069 407.752,745.699C405.508,748.427 402.759,750.262 399.79,751.254C398.467,751.696 397.105,751.968 395.729,752.076C396.027,758.278 396.776,764.609 398.227,770.552C398.507,771.696 398.813,772.826 399.146,773.935C399.178,774.026 399.206,774.118 399.23,774.211C400.591,778.669 402.406,782.813 404.79,786.388C408.441,791.858 412.116,794.71 415.572,795.755C418.276,796.574 420.918,796.264 423.321,795.256C425.908,794.171 428.256,792.289 430.168,790.093C433.005,786.836 434.822,783.063 435.012,780.28C432.751,776.115 430.513,770.857 428.429,765.023C426.295,759.043 424.291,752.355 422.575,745.552Z" style="fill:rgb(181,63,0);fill-rule:nonzero;"/>
            <path d="M470.909,774.204L470.603,773.997C456.606,764.547 443.714,755.844 430.746,749.337C432.035,753.948 433.461,758.469 434.968,762.689C437.07,768.574 439.303,773.778 441.508,777.694C443.823,781.802 446.469,784.508 449.209,786.04C451.897,787.543 454.723,787.929 457.417,787.419C460.212,786.891 462.913,785.404 465.232,783.201C467.663,780.891 469.658,777.807 470.909,774.204Z" style="fill:rgb(181,63,0);fill-rule:nonzero;"/>
            <path d="M496.028,731.855C494.71,732.841 493.433,733.855 492.202,734.899C492.727,737.167 493.333,739.372 494.012,741.521C494.591,740.429 495.063,739.226 495.403,737.918C495.876,736.102 496.103,734.08 496.028,731.855Z" style="fill:rgb(181,63,0);fill-rule:nonzero;"/>
            <path d="M450.119,683.634C449.565,684.227 449.009,684.807 448.452,685.376C450.366,685.38 452.246,685.38 454.093,685.379C452.76,684.783 451.423,684.198 450.119,683.634Z" style="fill:rgb(181,63,0);fill-rule:nonzero;"/>
            <path d="M280.074,359.504C276.221,353.362 271.05,349.563 265.479,349.563C259.908,349.563 254.737,353.362 250.884,359.504C246.735,366.117 244.168,375.334 244.168,385.588C244.168,395.842 246.735,405.06 250.884,411.672C254.737,417.814 259.908,421.613 265.479,421.613C271.05,421.613 276.221,417.814 280.074,411.672C284.223,405.06 286.791,395.842 286.791,385.588C286.791,375.334 284.223,366.117 280.074,359.504Z" style="fill:white;fill-rule:nonzero;"/>
            <path d="M435.637,358.897C430.295,351.988 422.985,347.714 414.972,347.714C406.96,347.714 399.648,351.988 394.307,358.897C388.771,366.057 385.346,376.008 385.346,387.051C385.346,398.093 388.771,408.044 394.307,415.205C399.649,422.113 406.96,426.387 414.972,426.387C422.984,426.387 430.295,422.113 435.637,415.205C441.173,408.044 444.598,398.093 444.598,387.051C444.598,376.008 441.173,366.057 435.637,358.897Z" style="fill:white;fill-rule:nonzero;"/>
            <path d="M216.667,457.499C211.834,453.785 207.095,450.265 202.453,446.816C165.054,419.034 133.707,395.746 114.82,319.711L113.473,314.27C109.606,298.633 107.825,287.411 107.066,285.284C104.774,288.347 101.067,297.551 98.525,311.369C95.65,327 94.563,348.082 99.215,372.155C105.056,402.378 119.954,437.275 151.725,471.963C153.014,473.371 152.916,475.558 151.508,476.846C150.1,478.135 147.913,478.038 146.624,476.629C132.906,461.652 122.236,446.623 114.02,431.915C107.644,426.11 101.612,420.086 96.005,414.021C89.928,407.446 84.45,400.929 79.655,394.672C76.751,390.882 73.648,386.739 70.846,382.998C63.909,373.734 60.555,366.592 59.326,365.576C58.249,368.915 58.064,378.851 60.777,392.833C63.823,408.524 70.664,428.704 84.29,449.411C89.189,456.856 94.966,464.371 101.762,471.771C101.826,471.836 101.887,471.903 101.945,471.971C115.005,486.152 131.809,499.911 153.339,511.96C155.009,512.897 155.605,515.011 154.668,516.681C153.732,518.351 151.617,518.947 149.947,518.01C127.924,505.684 110.665,491.586 97.193,477.026C95.189,476.007 93.084,474.874 91.005,473.721C88.664,472.424 86.554,471.215 84.677,470.128C80.409,467.655 76.665,465.43 73.286,463.422C64.341,458.106 59.459,452.863 58.096,452.665C58.245,455.522 61.59,464.119 68.839,475.41C76.669,487.606 89.014,502.226 106.87,514.995C107.399,515.202 107.861,515.534 108.224,515.953C108.76,516.328 109.303,516.702 109.849,517.074C124.112,526.771 141.71,535.232 163.119,540.495C164.977,540.952 166.112,542.829 165.655,544.687C165.199,546.545 163.321,547.68 161.463,547.224C139.205,541.751 120.863,532.924 105.969,522.799C105.361,522.386 104.76,521.97 104.164,521.553L102.108,521.348L99.087,521.021C93.946,520.445 89.742,519.921 85.944,519.448C75.195,518.109 68.427,515.276 67.566,515.888C68.288,518.345 75.378,526.266 87.924,535.173C99.258,543.22 114.844,551.494 134.032,556.322C134.128,556.342 134.223,556.365 134.316,556.393C138.26,557.377 142.356,558.215 146.597,558.875C155.544,560.268 165.157,560.87 175.381,560.383C177.292,560.294 178.914,561.77 179.003,563.68C179.093,565.59 177.617,567.213 175.707,567.302C165.021,567.81 154.944,567.177 145.539,565.713C141.293,565.052 137.187,564.22 133.224,563.25L132.025,563.465L132.025,563.479C128.063,564.187 123.277,564.982 118.967,565.698C108.641,567.413 101.488,566.752 100.441,567.451C102.714,570.124 113.027,576.269 128.838,581.536C146.193,587.317 169.704,591.537 195.79,588.021C210.668,586.016 226.395,581.484 242.307,573.278C240.588,565.217 239.579,556.927 239.414,548.452L239.414,548.439C239.045,529.523 242.869,509.725 252.335,489.55C237.155,480.382 224.507,469.437 216.667,457.499Z" style="fill:rgb(224,99,32);fill-rule:nonzero;"/>
            <path d="M216.667,457.499C214.794,456.06 212.936,454.65 211.091,453.262C213.447,490.513 204.076,546.661 159.408,532.799C107.04,516.546 69.547,475.524 60.999,461.304C62.758,465.153 65.345,469.968 68.839,475.41C76.669,487.606 89.014,502.226 106.87,514.995C107.399,515.202 107.861,515.534 108.224,515.953C108.76,516.328 109.303,516.702 109.849,517.074C124.112,526.771 141.71,535.232 163.119,540.495C164.977,540.952 166.112,542.829 165.655,544.687C165.199,546.545 163.321,547.68 161.463,547.224C139.205,541.751 120.863,532.924 105.969,522.799C105.361,522.386 104.76,521.97 104.164,521.553L102.108,521.348L99.087,521.021C93.946,520.445 89.742,519.921 85.944,519.448C75.195,518.109 68.427,515.276 67.566,515.888C68.288,518.345 75.378,526.266 87.924,535.173C99.258,543.22 114.844,551.494 134.032,556.322C134.128,556.342 134.223,556.365 134.316,556.393C138.26,557.377 142.356,558.215 146.597,558.875C155.544,560.268 165.157,560.87 175.381,560.383C177.292,560.294 178.914,561.77 179.003,563.68C179.093,565.59 177.617,567.213 175.707,567.302C165.021,567.81 154.944,567.177 145.539,565.713C141.293,565.052 137.187,564.22 133.224,563.25L132.025,563.465L132.025,563.479C128.063,564.187 123.277,564.982 118.967,565.698C108.641,567.413 101.488,566.752 100.441,567.451C102.714,570.124 113.027,576.269 128.838,581.536C146.193,587.317 169.704,591.537 195.79,588.021C210.668,586.016 226.395,581.484 242.307,573.278C240.588,565.217 239.579,556.927 239.414,548.452L239.414,548.439C239.045,529.523 242.869,509.725 252.335,489.55C237.155,480.382 224.507,469.437 216.667,457.499Z" style="fill:rgb(181,63,0);fill-rule:nonzero;"/>
            <path d="M313.417,423.628C311.87,424.926 310.312,426.604 308.742,428.74C308.067,429.66 307.444,430.858 306.87,431.962C305.841,433.942 304.926,435.7 303.298,436.863C300.029,439.201 296.462,438.419 291.07,430.876C290.118,429.544 289.272,428.098 288.533,426.561C287.008,423.387 285.984,419.869 285.417,416.166C280.337,423.846 273.325,428.559 265.479,428.559C257.363,428.559 250.139,423.515 245.023,415.362C240.204,407.681 237.221,397.148 237.221,385.588C237.221,374.028 240.204,363.495 245.023,355.814C250.139,347.661 257.363,342.617 265.479,342.617C273.595,342.617 280.819,347.661 285.935,355.814C289.784,361.947 292.46,369.898 293.383,378.739C296.157,374.289 299.533,370.472 303.392,367.713C304.683,366.791 306.05,365.976 307.487,365.285C318.327,360.073 327.182,361.979 334.144,366.471C340.768,370.745 345.467,377.334 348.484,382.104C351.188,386.38 353.921,390.465 356.706,393.084C358.86,395.109 361.006,396.184 363.121,395.479C366.907,394.217 372.738,393.546 377.476,394.939C377.997,395.093 378.508,395.27 379.005,395.473C378.608,392.741 378.4,389.926 378.4,387.051C378.4,374.451 382.385,362.996 388.827,354.663C395.464,346.079 404.705,340.768 414.972,340.768C425.239,340.768 434.479,346.079 441.117,354.663C447.56,362.995 451.545,374.451 451.545,387.051C451.545,399.651 447.559,411.106 441.117,419.438C434.479,428.022 425.239,433.333 414.972,433.333C404.706,433.333 395.465,428.022 388.827,419.438C387.495,417.715 386.268,415.858 385.159,413.884C383.288,420.008 379.676,429.819 374.441,440.176C379.751,443.035 383.768,445.541 384.676,446.113L384.9,446.247C389.034,448.941 393.473,451.045 398.131,452.457C402.605,453.814 407.329,454.536 412.23,454.536C427.831,454.536 441.986,447.066 452.258,434.989C462.667,422.75 469.106,405.804 469.106,387.054C469.106,368.304 462.667,351.358 452.258,339.119C441.986,327.043 427.831,319.572 412.23,319.572C406.939,319.572 401.82,320.429 396.972,322.029C391.968,323.681 387.257,326.111 382.941,329.195L382.786,329.311C382.706,329.367 354.875,348.898 345.433,348.269C336.049,347.644 316.371,330.912 316.314,330.865L316.274,330.825C312.131,327.205 307.549,324.347 302.652,322.412C297.978,320.566 293.016,319.572 287.876,319.572C273.854,319.572 261.102,326.996 251.823,338.997C242.348,351.251 236.487,368.24 236.487,387.054C236.487,405.869 242.348,422.857 251.823,435.111C261.102,447.112 273.854,454.536 287.876,454.536C293.211,454.536 298.068,453.544 302.591,451.733C306.731,450.075 310.631,447.725 314.392,444.817C314.405,443.648 314.41,442.484 314.406,441.328C314.383,434.423 314.066,427.949 313.417,423.628Z" style="fill:rgb(255,204,176);fill-rule:nonzero;"/>
            <path d="M360.427,427.005C357.838,450.844 345.013,464.893 335.125,470.799C332.478,472.381 329.986,473.416 327.896,473.929C325.251,474.579 322.958,474.426 321.357,473.537C320.388,472.999 319.665,472.294 319.223,471.429C318.344,476.355 319.112,478.387 320.809,478.712C323.815,479.288 328.936,477.552 334.502,475.174C343.915,471.153 352.055,462.746 358.731,453.159C369.4,437.842 376.24,419.67 378.805,410.952C379.632,408.141 379.68,406.098 379.2,404.655C378.944,403.887 378.502,403.277 377.937,402.802C377.287,402.257 376.454,401.86 375.523,401.586C372.229,400.617 368.049,401.126 365.293,402.045C360.276,403.718 355.929,401.865 351.958,398.131C348.617,394.99 345.586,390.478 342.624,385.793C339.973,381.605 335.892,375.848 330.401,372.304C325.249,368.981 318.649,367.594 310.472,371.525C309.437,372.023 308.412,372.639 307.407,373.356C300.821,378.063 295.862,386.805 293.435,396.327C291.002,405.865 291.148,416.034 294.774,423.576C295.325,424.722 295.971,425.823 296.713,426.861C298.981,430.034 299.058,431.381 299.282,431.221C299.52,431.05 300.081,429.973 300.711,428.76C301.387,427.461 302.121,426.05 303.153,424.644C316.106,407.009 327.903,412.268 339.423,417.405C344.174,419.523 348.869,421.616 353.126,421.362C363.287,420.756 366.149,414.322 366.157,414.304C366.973,412.573 369.039,411.832 370.77,412.649C372.5,413.466 373.241,415.531 372.425,417.261C372.414,417.284 369.377,424.065 360.427,427.005Z" style="fill:rgb(255,169,41);fill-rule:nonzero;"/>
            <path d="M327.583,439.806C332.281,434.276 340.091,429.532 353.047,429.821C353.128,429.317 353.207,428.809 353.278,428.294C347.452,428.564 342.058,426.159 336.601,423.727C333.315,422.262 330,420.785 326.646,420.138C327.372,425.952 327.62,432.751 327.585,439.461L327.583,439.806Z" style="fill:rgb(69,13,1);fill-rule:nonzero;"/>
            <path d="M327.471,456.655C327.411,457.314 327.172,457.911 326.804,458.405C326.531,461.981 326.221,465.043 325.927,467.277L326.241,467.201C327.719,466.838 329.549,466.065 331.57,464.857C338.599,460.659 347.347,451.6 351.52,436.765C329.062,437.116 327.476,456.597 327.471,456.655Z" style="fill:rgb(237,122,59);fill-rule:nonzero;"/>
            <path d="M563.285,594.468C562.859,594.25 562.486,593.948 562.185,593.584C560.887,592.576 559.51,591.619 558.063,590.723C552.119,587.047 545.03,584.427 537.466,583.523C537.659,591.139 539.604,598.443 542.707,604.707C545.433,610.206 549.035,614.871 553.105,618.194C557,621.375 561.299,623.309 565.604,623.516C567.957,623.629 570.344,623.223 572.697,622.217C573.912,619.977 574.536,617.647 574.645,615.3C574.842,610.986 573.321,606.522 570.52,602.348C568.636,599.538 566.183,596.872 563.285,594.468Z" style="fill:rgb(144,214,30);fill-rule:nonzero;"/>
            <path d="M592.65,591.398C593.168,586.024 592.589,580.126 590.885,574.282C589.406,569.21 587.08,564.182 583.886,559.574C579.663,563.514 576.237,568.098 573.677,572.917C570.73,578.468 568.948,584.291 568.437,589.764C571.534,592.435 574.185,595.384 576.272,598.495C577.545,600.393 578.612,602.356 579.448,604.356L579.656,604.042C582.825,599.32 587.294,594.97 592.65,591.398Z" style="fill:rgb(144,214,30);fill-rule:nonzero;"/>
            <path d="M598.639,595.802C598.129,596.484 597.377,596.961 596.53,597.128C591.912,600.199 588.087,603.903 585.408,607.895C582.607,612.07 581.086,616.535 581.283,620.849C581.391,623.196 582.016,625.526 583.231,627.766C585.584,628.771 587.97,629.177 590.324,629.065C594.629,628.858 598.927,626.925 602.823,623.743C606.893,620.419 610.495,615.755 613.221,610.255C616.324,603.992 618.269,596.687 618.462,589.071C611.223,589.936 604.419,592.372 598.639,595.802Z" style="fill:rgb(144,214,30);fill-rule:nonzero;"/>
            <path d="M688.455,688.159C688.439,690.511 688.943,692.878 690.045,695.188C692.346,696.319 694.702,696.852 697.046,696.863C701.352,696.882 705.746,695.178 709.805,692.205C714.047,689.098 717.893,684.628 720.904,679.278C724.337,673.181 726.667,665.987 727.261,658.401C719.664,658.909 712.446,661.153 706.316,664.512C700.922,667.468 696.405,671.262 693.255,675.461C690.238,679.483 688.483,683.855 688.455,688.159Z" style="fill:rgb(144,214,30);fill-rule:nonzero;"/>
            <path d="M721.667,713.873C727.089,714.166 733.007,713.325 738.833,711.344C743.8,709.654 748.679,707.139 753.103,703.797C749.009,699.755 744.313,696.53 739.42,694.175C733.737,691.44 727.821,689.888 722.31,689.601C719.767,692.806 716.928,695.578 713.902,697.794C712.059,699.144 710.143,700.29 708.177,701.208L708.492,701.399C713.342,704.37 717.874,708.661 721.667,713.873Z" style="fill:rgb(144,214,30);fill-rule:nonzero;"/>
            <path d="M717.116,719.431C716.963,719.25 716.828,719.051 716.715,718.841C713.334,713.965 709.246,709.986 704.884,707.313C700.601,704.689 696.08,703.356 691.776,703.731C689.42,703.936 687.113,704.654 684.934,705.953C684.026,708.345 683.718,710.749 683.928,713.099C684.311,717.386 686.421,721.599 689.762,725.362C693.251,729.293 698.063,732.703 703.676,735.201C710.056,738.041 717.429,739.682 725.043,739.564C723.839,732.096 720.974,725.176 717.116,719.431Z" style="fill:rgb(144,214,30);fill-rule:nonzero;"/>
            <path d="M581.762,828.608C580.312,830.706 579.438,832.956 579.078,835.279C578.417,839.542 579.449,844.142 581.785,848.596C584.225,853.251 588.075,857.718 592.922,861.494C598.432,865.79 605.199,869.158 612.621,870.873C613.249,863.288 612.101,855.816 609.69,849.252C607.572,843.484 604.491,838.454 600.802,834.71C597.273,831.129 593.212,828.743 588.962,828.075C586.637,827.71 584.218,827.858 581.762,828.608Z" style="fill:rgb(144,214,30);fill-rule:nonzero;"/>
            <path d="M618.753,815.439C618.894,815.299 619.047,815.172 619.21,815.059C620.553,813.926 621.858,812.691 623.11,811.363C627.9,806.28 631.887,799.863 634.289,792.638C626.786,791.299 619.243,791.736 612.495,793.519C606.558,795.087 601.263,797.684 597.185,801.009C593.3,804.177 590.549,807.998 589.482,812.18C588.898,814.468 588.815,816.885 589.324,819.38C591.275,821.021 593.433,822.101 595.712,822.677C599.903,823.738 604.579,823.145 609.222,821.242C612.478,819.907 615.71,817.936 618.753,815.439Z" style="fill:rgb(144,214,30);fill-rule:nonzero;"/>
            <path d="M615.527,845.12C620.72,846.711 626.672,847.317 632.812,846.794C638.032,846.348 643.363,845.083 648.452,842.91C645.447,837.99 641.656,833.722 637.464,830.255C632.616,826.245 627.256,823.324 621.979,821.721C618.742,824.218 615.321,826.224 611.853,827.645C609.737,828.512 607.6,829.165 605.472,829.584L605.74,829.853C609.736,833.91 613.105,839.162 615.527,845.12Z" style="fill:rgb(144,214,30);fill-rule:nonzero;"/>
            <path d="M402.707,515.554C403.913,514.07 406.094,513.845 407.577,515.052C409.061,516.258 409.286,518.439 408.079,519.922C398.548,531.684 393.919,551.089 392.892,572.815C391.774,596.468 394.958,622.72 400.775,644.966C405.32,662.347 411.405,677.163 418.204,686.162C418.409,686.36 418.592,686.588 418.748,686.843L418.8,686.932C420.374,688.923 421.983,690.603 423.619,691.93C425.411,693.381 427.2,694.36 428.964,694.796C429.089,694.012 429.482,693.267 430.132,692.711L430.996,691.967C431.281,688.425 431.753,681.955 432.858,673.253C434.828,657.749 436.674,635.879 437.866,610.592C438.067,606.323 438.246,602.066 438.4,597.841C438.467,595.931 440.071,594.437 441.982,594.504C443.892,594.57 445.386,596.175 445.319,598.085C445.156,602.553 444.977,606.834 444.785,610.917C443.587,636.322 441.72,658.393 439.722,674.12C439.16,678.541 438.527,682.507 437.833,685.965C440.473,683.556 443.15,680.956 445.797,678.045L445.806,678.023C446.117,677.291 446.651,676.723 447.295,676.361C462.015,659.406 475.401,631.961 475.729,572.552C475.736,570.641 477.292,569.099 479.202,569.106C481.113,569.114 482.655,570.669 482.648,572.58C482.465,605.654 478.329,629.244 472.142,646.756C487.243,626.535 496.957,598.799 499.077,570.905C501.324,541.343 495.027,511.723 477.543,490.926C475.093,488.01 472.412,485.26 469.498,482.704C464.521,485.852 459.191,488.84 453.588,491.645C422.248,507.33 382.169,517.444 347.853,517.444C319.205,517.444 285.428,507.923 258.361,493.024C249.553,512.001 245.988,530.583 246.333,548.316C246.971,580.996 260.877,610.93 279.702,635.223C298.591,659.599 322.386,678.255 342.726,688.327C350.992,692.42 358.613,695.069 365.002,696.072C365.122,696.084 365.241,696.102 365.359,696.127L365.361,696.127L365.366,696.128C367.342,696.421 369.198,696.554 370.915,696.52L370.934,696.52C380.722,696.329 389.081,695.096 396.236,693.157C401.785,691.652 406.584,689.723 410.747,687.526C404.146,677.6 398.38,663.174 394.074,646.703C388.095,623.835 384.822,596.835 385.973,572.489C387.064,549.407 392.158,528.573 402.707,515.554Z" style="fill:rgb(224,99,32);fill-rule:nonzero;"/>
            <path d="M279.702,635.223C298.591,659.599 322.386,678.255 342.726,688.327C350.992,692.42 358.613,695.069 365.002,696.072C365.122,696.084 365.241,696.102 365.359,696.127L365.361,696.127L365.366,696.128C367.342,696.421 369.198,696.554 370.915,696.52L370.934,696.52C380.722,696.329 389.081,695.096 396.236,693.157C401.785,691.652 406.584,689.723 410.747,687.526C404.146,677.6 398.38,663.174 394.074,646.703C391.612,637.287 389.61,627.172 388.185,616.828C372.665,588.038 338.034,547.149 310.315,549.179C275.567,551.725 274.144,614.385 279.702,635.223Z" style="fill:rgb(255,204,176);fill-rule:nonzero;"/>
            <path d="M402.707,515.554C403.913,514.07 406.094,513.845 407.577,515.052C409.061,516.258 409.286,518.439 408.079,519.922C406.582,521.77 405.205,523.807 403.945,526.012C416.833,522.862 428.733,519.267 439.449,516.149C451.686,512.589 466.746,508.851 468.649,549.115C470.342,584.916 465.298,638.092 439.254,677.583C438.816,680.634 438.34,683.435 437.833,685.965C440.473,683.556 443.15,680.956 445.797,678.045L445.806,678.023C446.117,677.291 446.651,676.723 447.295,676.361C462.015,659.406 475.401,631.961 475.729,572.552C475.736,570.641 477.292,569.099 479.202,569.106C481.113,569.114 482.655,570.669 482.648,572.58C482.465,605.654 478.329,629.244 472.142,646.756C487.243,626.535 496.957,598.799 499.077,570.905C501.324,541.343 495.027,511.723 477.543,490.926C475.093,488.01 472.412,485.26 469.498,482.704C464.521,485.852 459.191,488.84 453.588,491.645C422.248,507.33 382.169,517.444 347.853,517.444C319.205,517.444 285.428,507.923 258.361,493.024C255.717,498.722 253.545,504.384 251.809,509.999C304.82,539.714 354.429,536.929 395.171,528.044C397.285,523.361 399.787,519.157 402.707,515.554ZM426.506,693.851C427.33,694.277 428.149,694.595 428.964,694.796C429.089,694.012 429.482,693.267 430.132,692.711L430.996,691.967C431.074,690.996 431.166,689.804 431.282,688.408C429.75,690.267 428.155,692.08 426.506,693.851Z" style="fill:rgb(181,63,0);fill-rule:nonzero;"/>
            <path d="M269.307,366.495C278.54,366.495 286.024,378.216 286.024,392.676C286.024,407.136 278.54,418.858 269.307,418.858C260.075,418.858 252.591,407.136 252.591,392.676C252.591,378.216 260.075,366.495 269.307,366.495Z" style="fill:rgb(69,13,1);"/>
            <path d="M416.041,367.201C427.778,367.201 437.293,380.473 437.293,396.844C437.293,413.216 427.778,426.487 416.041,426.487C404.304,426.487 394.789,413.216 394.789,396.844C394.789,380.473 404.304,367.201 416.041,367.201Z" style="fill:rgb(69,13,1);"/>
            <path d="M259.69,368.752C262.316,368.752 264.445,372.086 264.445,376.199C264.445,380.313 262.316,383.647 259.69,383.647C257.064,383.647 254.935,380.313 254.935,376.199C254.935,372.086 257.064,368.752 259.69,368.752Z" style="fill:white;"/>
            <path d="M403.516,371.356C407.077,371.356 409.965,375.878 409.965,381.456C409.965,387.034 407.077,391.556 403.516,391.556C399.955,391.556 397.067,387.034 397.067,381.456C397.067,375.878 399.955,371.356 403.516,371.356Z" style="fill:white;"/>
            <path d="M272.159,300.191C269.492,302.727 260.68,311.462 261.263,315.638C267.303,318.26 295.622,319.841 326.603,319.284C358.745,318.707 393.334,315.711 408.402,308.992C411.387,307.662 413.411,306.296 414.221,304.912C415.44,302.831 416.774,300.466 417.871,298.497C393.877,294.365 370.961,293 347.819,293.495C323.392,294.018 298.671,296.604 272.159,300.191ZM350.282,204.239C351.039,202.355 352.232,200.682 353.741,199.352C355.878,197.469 358.641,196.275 361.691,196.141C364.927,195.998 367.948,197.072 370.31,198.961C371.996,200.309 373.341,202.079 374.183,204.121C385.538,205.385 396.645,208.516 406.825,213.388C434.603,226.684 455.405,252.889 455.566,289.488L455.456,290.376C453.758,296.909 432.038,298.85 425.342,299.296C424.194,301.376 422.159,305.026 420.186,308.396C418.587,311.128 415.487,313.424 411.207,315.331C395.231,322.454 359.632,325.612 326.745,326.203C293.691,326.797 262.954,324.678 257.268,321.348L257.254,321.348C256.235,320.75 255.508,319.993 255.098,319.072C251.663,311.366 263.671,298.806 267.269,295.286C271.888,249.857 296.132,222.456 325.777,210.514C333.66,207.34 341.917,205.264 350.282,204.239ZM412.268,224.248C415.009,227.959 417.263,232.104 419.113,236.644C425.17,251.515 426.697,270.535 426.711,292.273C433.399,291.866 447.141,290.801 448.633,288.862C448.284,259.406 433.311,237.342 412.268,224.248ZM419.784,291.795C419.748,271.074 418.297,253.045 412.684,239.264C406.939,225.159 396.635,215.431 378.577,211.729C374.614,211.075 370.599,210.663 366.568,210.502C353.599,209.986 340.487,212.064 328.37,216.945C301.601,227.727 279.575,252.283 274.507,292.896C300.019,289.505 323.946,287.085 347.649,286.577C371.501,286.066 395.093,287.488 419.784,291.795Z" style="fill:rgb(8,10,54);fill-rule:nonzero;"/>
            <path d="M419.784,291.795C419.748,271.074 418.297,253.045 412.684,239.264C406.939,225.159 396.635,215.431 378.577,211.729C374.614,211.075 370.599,210.663 366.568,210.502C353.599,209.986 340.487,212.064 328.37,216.945C301.601,227.727 279.575,252.283 274.507,292.896C300.019,289.505 323.946,287.085 347.649,286.577C371.501,286.066 395.093,287.488 419.784,291.795Z" style="fill:white;fill-rule:nonzero;"/>
            <path d="M412.268,224.248C415.009,227.959 417.263,232.104 419.113,236.644C425.17,251.515 426.697,270.535 426.711,292.273C433.399,291.866 447.141,290.801 448.633,288.862C448.284,259.406 433.311,237.342 412.268,224.248Z" style="fill:rgb(100,108,255);fill-rule:nonzero;"/>
            <path d="M272.159,300.191C269.492,302.727 260.68,311.462 261.263,315.638C267.303,318.26 295.622,319.841 326.603,319.284C358.745,318.707 393.334,315.711 408.402,308.992C411.387,307.662 413.411,306.296 414.221,304.912C415.44,302.831 416.774,300.466 417.871,298.497C393.877,294.365 370.961,293 347.819,293.495C323.392,294.018 298.671,296.604 272.159,300.191Z" style="fill:rgb(100,108,255);fill-rule:nonzero;"/>
            <path d="M367.441,237.302C366.103,236.66 365.71,236.484 365.094,236.247C364.359,235.964 363.293,235.582 362.813,235.429C362.15,235.216 361.806,234.943 361.806,234.627C361.806,234.494 361.751,234.247 361.684,234.078C361.617,233.908 361.368,233.256 361.132,232.629C360.598,231.209 360.436,230.836 359.723,229.394C359.409,228.759 359.191,228.177 359.238,228.101C359.295,228.011 359.712,228.001 360.465,228.075C364.691,228.488 367.74,230.996 368.775,234.91C369.069,236.023 369.198,237.878 368.984,237.939C368.91,237.96 368.216,237.673 367.441,237.302Z" style="fill:rgb(100,108,255);"/>
            <path d="M325.227,237.788C325.128,237.529 325.283,235.851 325.481,235.044C325.708,234.118 326.321,232.708 326.807,231.996C327.99,230.26 330.065,228.861 332.224,228.341C333.358,228.068 334.89,227.939 335.054,228.103C335.108,228.156 334.844,228.85 334.469,229.643C333.762,231.137 333.081,232.789 332.741,233.837C332.31,235.162 332.324,235.146 331.372,235.459C329.919,235.936 327.879,236.768 326.609,237.403C325.956,237.729 325.396,237.996 325.364,237.996C325.332,237.996 325.27,237.902 325.227,237.788Z" style="fill:rgb(100,108,255);"/>
            <path d="M359.258,271.883C359.258,271.762 359.43,271.317 359.641,270.895C360.249,269.678 360.961,267.953 361.505,266.378C362.026,264.871 362.058,264.831 362.947,264.567C363.242,264.479 363.604,264.357 363.752,264.295C363.899,264.233 364.684,263.923 365.496,263.605C366.308,263.288 367.42,262.798 367.968,262.517C368.611,262.187 369.011,262.051 369.095,262.135C369.279,262.319 368.999,264.563 368.66,265.608C368.232,266.93 367.495,268.21 366.655,269.091C365.018,270.805 362.975,271.725 360.163,272.011C359.375,272.092 359.258,272.075 359.258,271.883Z" style="fill:rgb(100,108,255);"/>
            <path d="M333.328,271.927C329.535,271.371 326.843,269.143 325.645,265.566C325.375,264.759 325.06,262.34 325.196,262.119C325.264,262.009 325.708,262.166 326.679,262.643C328.51,263.542 329.299,263.889 329.512,263.889C329.609,263.889 329.746,263.938 329.816,263.999C329.886,264.059 330.396,264.251 330.949,264.426C332.196,264.819 332.346,264.943 332.621,265.81C333.062,267.204 333.821,269.085 334.457,270.36C334.815,271.078 335.108,271.757 335.108,271.869C335.108,272.099 334.617,272.115 333.328,271.927Z" style="fill:rgb(100,108,255);"/>
            <path d="M345.885,277.725C343.074,277.328 340.275,275.374 337.908,272.154C336.78,270.62 334.613,266.491 334.613,265.876C334.613,265.775 334.572,265.651 334.522,265.601C334.472,265.551 334.272,265.044 334.078,264.475L333.725,263.44L332.427,262.992C327.7,261.358 323.655,258.769 321.668,256.107C321.461,255.831 321.222,255.53 321.137,255.44C320.826,255.109 319.74,252.714 319.569,251.984C319.173,250.284 319.494,247.633 320.287,246.064C321.644,243.378 324.485,240.764 328.072,238.9C329.647,238.082 330.451,237.736 332.277,237.088C333.861,236.526 333.63,236.782 334.369,234.768C334.521,234.355 334.761,233.756 334.902,233.437C335.044,233.119 335.16,232.83 335.16,232.794C335.16,232.631 336.106,230.755 336.714,229.713C338.567,226.538 341.381,223.825 343.768,222.915C345.233,222.356 345.625,222.282 347.115,222.282C348.808,222.282 349.674,222.486 351.195,223.243C353.347,224.313 355.124,225.962 356.841,228.483C357.807,229.902 359.753,233.763 359.753,234.261C359.753,234.36 359.804,234.499 359.866,234.57C359.928,234.641 360.062,234.976 360.164,235.315C360.519,236.496 360.637,236.632 361.56,236.925C364.256,237.78 367.403,239.362 369.454,240.892C373.044,243.57 374.919,246.684 374.919,249.963C374.919,253.664 372.843,256.833 368.429,259.869C366.799,260.991 363.462,262.544 361.282,263.196C360.611,263.397 360.577,263.445 360.087,264.91C359.889,265.503 359.402,266.706 359.006,267.583C356.666,272.769 353.442,276.203 349.809,277.38C348.967,277.653 346.754,277.848 345.885,277.725Z" style="fill:rgb(100,108,255);"/>
            <path d="M353.742,270.177C353.742,269.587 353.782,268.358 353.831,267.444L353.92,265.783L353.319,265.783C352.007,265.783 350.144,265.268 349.096,264.617C348.413,264.192 347.593,263.242 347.593,262.873C347.593,262.599 347.698,262.54 348.447,262.39C351.616,261.758 353.809,260.464 355.311,258.337C356.154,257.144 357.009,255.232 357.295,253.896C357.519,252.854 357.815,251.321 357.969,250.412C358.058,249.886 358.183,249.179 358.248,248.841C358.68,246.595 359.186,243.594 359.342,242.361C359.662,239.834 359.101,237.571 357.774,236.033C356.928,235.052 355.261,234.223 353.263,233.791C352.028,233.524 347.528,233.563 346.227,233.851C342.803,234.611 340.729,235.902 339.109,238.28C338.741,238.822 338.439,239.296 338.439,239.335C338.439,239.374 338.276,239.761 338.077,240.195C337.877,240.629 337.658,241.2 337.589,241.463C337.24,242.8 337.084,243.515 336.805,245.049C336.727,245.481 336.601,246.173 336.526,246.586C336.451,247 336.328,247.676 336.253,248.089C336.178,248.503 336.055,249.179 335.98,249.592C335.622,251.561 335.546,252.002 335.36,253.201C334.651,257.762 336.102,260.729 339.63,261.933C340.064,262.081 340.629,262.24 340.885,262.286C341.481,262.392 341.718,262.594 341.718,262.992C341.718,263.912 342.563,266.159 343.27,267.123C343.943,268.039 345.248,269.249 345.951,269.607C347.863,270.583 350.308,271.143 353.024,271.226L353.742,271.248L353.742,270.177Z" style="fill:white;"/>
            <path d="M343.973,256.372C342.609,255.742 342.267,254.868 342.527,252.681C342.621,251.884 342.749,250.986 342.811,250.686C342.873,250.385 342.992,249.709 343.076,249.183C343.16,248.657 343.286,247.919 343.355,247.543C343.425,247.167 343.549,246.46 343.631,245.972C343.904,244.344 344.056,243.585 344.204,243.102C344.939,240.707 346.475,239.55 348.92,239.55C350.635,239.55 351.561,240.124 352.042,241.485C352.382,242.451 352.34,242.884 351.419,247.953C351.344,248.366 351.221,249.042 351.146,249.456C351.071,249.869 350.951,250.53 350.88,250.925C350.361,253.819 350.056,254.603 349.079,255.562C348.358,256.271 347.53,256.542 345.954,256.585C344.787,256.617 344.417,256.577 343.973,256.372Z" style="fill:rgb(100,108,255);"/>
        </g>
    </g>
</svg>
