<?xml version="1.0" encoding="UTF-8" standalone="no"?>
<!-- Created with Inkscape (http://www.inkscape.org/) -->

<svg
   version="1.1"
   id="svg2"
   width="1603.4044"
   height="406.06183"
   viewBox="0 0 1603.4044 406.06183"
   sodipodi:docname="Quizalicious logo full dark theme.svg"
   inkscape:version="1.2.1 (9c6d41e410, 2022-07-14)"
   inkscape:export-filename="Quizalicious logo full dark themeex.svg"
   inkscape:export-xdpi="96"
   inkscape:export-ydpi="96"
   xmlns:inkscape="http://www.inkscape.org/namespaces/inkscape"
   xmlns:sodipodi="http://sodipodi.sourceforge.net/DTD/sodipodi-0.dtd"
   xmlns="http://www.w3.org/2000/svg"
   xmlns:svg="http://www.w3.org/2000/svg">
  <sodipodi:namedview
     id="namedview14"
     pagecolor="#ffffff"
     bordercolor="#000000"
     borderopacity="0.25"
     inkscape:showpageshadow="2"
     inkscape:pageopacity="0.0"
     inkscape:pagecheckerboard="0"
     inkscape:deskcolor="#d1d1d1"
     showgrid="false"
     inkscape:zoom="0.7546443"
     inkscape:cx="801.70221"
     inkscape:cy="202.74453"
     inkscape:window-width="2498"
     inkscape:window-height="1417"
     inkscape:window-x="54"
     inkscape:window-y="-8"
     inkscape:window-maximized="1"
     inkscape:current-layer="g8" />
  <defs
     id="defs6" />
  <g
     id="g8"
     transform="translate(-28.6496,-152.61456)">
    <path
       style="fill:#646cff;fill-opacity:1;stroke-width:0.981927"
       d="m 380.2678,262.54331 c -9.79635,-4.69505 -12.67317,-5.98772 -17.18374,-7.72139 -5.37669,-2.06658 -13.18071,-4.86645 -16.69278,-5.98893 -4.85173,-1.55065 -7.36445,-3.55161 -7.36445,-5.86454 0,-0.971 -0.40397,-2.78046 -0.89772,-4.02101 -0.49375,-1.24054 -2.31056,-6.01141 -4.03736,-10.60192 -3.91088,-10.39659 -5.09801,-13.12134 -10.31555,-23.67639 -2.29908,-4.65108 -3.89552,-8.90962 -3.5476,-9.46341 0.41775,-0.66499 3.46687,-0.72976 8.97895,-0.19075 30.93135,3.02465 53.24335,21.37572 60.82045,50.02332 2.15434,8.14515 3.09278,21.72433 1.53197,22.16752 -0.54007,0.15335 -5.62154,-1.94478 -11.29217,-4.6625 z"
       id="path882" />
    <path
       style="fill:#646cff;fill-opacity:1;stroke-width:0.981927"
       d="m 71.298281,266.10449 c -0.726516,-1.89326 0.411368,-14.17737 1.860416,-20.08428 1.663257,-6.7801 6.151387,-17.09815 9.703475,-22.30795 8.663038,-12.70595 23.845828,-22.95 39.649578,-26.75212 8.29953,-1.99674 19.51584,-2.94116 20.71296,-1.74405 0.39168,0.39169 -1.53645,5.4653 -4.28474,11.27471 -5.1725,10.93376 -10.15535,23.02734 -12.64589,30.69207 -3.1528,9.70286 -3.04955,9.58055 -10.01908,11.87055 -10.63051,3.49291 -25.56067,9.58761 -34.858536,14.22973 -4.780428,2.38671 -8.881569,4.33948 -9.113652,4.33948 -0.232082,0 -0.684121,-0.68316 -1.004531,-1.51814 z"
       id="path880" />
    <path
       style="fill:#646cff;fill-opacity:1;stroke-width:0.981927"
       d="m 320.3702,515.64578 c 0,-0.88841 1.26332,-4.14343 2.80736,-7.23337 4.45006,-8.90543 9.66127,-21.52924 13.64601,-33.05657 3.81315,-11.03096 4.04726,-11.32514 10.54965,-13.25659 2.16024,-0.64166 4.81144,-1.53782 5.89156,-1.99147 1.08012,-0.45364 6.8244,-2.72449 12.76506,-5.04631 5.94066,-2.32184 14.08385,-5.90755 18.09594,-7.96828 4.70162,-2.41486 7.63256,-3.40892 8.24509,-2.7964 1.34934,1.34935 -0.70591,17.77537 -3.18044,25.41901 -3.13357,9.67931 -8.52796,19.04778 -14.67736,25.49028 -11.97883,12.54978 -26.93707,19.28012 -47.51486,21.37896 -5.7706,0.58858 -6.62801,0.46706 -6.62801,-0.93926 z"
       id="path842" />
    <path
       style="fill:#646cff;fill-opacity:1;stroke-width:0.981927"
       d="m 130.59015,515.96312 c -27.76058,-4.06321 -47.463006,-20.37558 -56.229274,-46.55433 -1.976774,-5.90326 -4.281977,-23.61262 -3.283844,-25.22763 0.497856,-0.80555 3.745097,0.34121 10.852698,3.8326 13.40002,6.58235 19.17147,9.12093 20.73639,9.12093 0.70797,0 1.70698,0.3623 2.22004,0.80511 0.51306,0.44281 4.24683,1.84957 8.29729,3.12613 9.1219,2.87491 10.22174,3.78592 12.23223,10.13211 3.23254,10.20366 8.78781,23.96456 13.44189,33.29682 2.6211,5.25578 4.76564,10.22678 4.76564,11.04669 0,1.68659 -3.59553,1.8029 -13.03306,0.42157 z"
       id="path840" />
    <path
       style="fill:#646cff;fill-opacity:1"
       d="M 222.5,558.40237 C 201.92319,555.49918 181.44071,541.19501 164.11025,517.62524 155.85492,506.39782 140,476.18259 140,471.67757 c 0,-0.73933 -0.30023,-1.64446 -0.66717,-2.01141 -0.36695,-0.36694 -1.82945,-4.07485 -3.25,-8.2398 L 133.5,453.85374 124,450.56925 C 89.40323,438.60791 59.794356,419.66357 45.250235,400.18359 43.737606,398.15761 41.990223,395.95808 41.367162,395.29573 39.091759,392.87686 31.141144,375.34936 29.892812,370 c -2.902196,-12.43652 -0.549787,-31.84197 5.251817,-43.3232 9.933439,-19.65803 30.725147,-38.78987 56.982961,-52.43382 11.5222,-5.9871 17.40617,-8.52331 30.77611,-13.26563 11.58679,-4.10983 9.89665,-2.23533 15.30754,-16.97735 1.11029,-3.025 2.86697,-7.4076 3.90374,-9.7391 C 143.15174,231.92939 144,229.8121 144,229.5558 144,228.35738 150.92238,214.63093 155.37511,207 168.93502,183.7615 189.53447,163.90916 207,157.24748 c 10.72744,-4.09165 13.59307,-4.63354 24.5,-4.63292 12.38688,7.1e-4 18.7269,1.49321 29.85978,7.02926 15.75024,7.83212 28.75403,19.90159 41.32541,38.35618 C 309.75774,208.3824 324,236.63939 324,240.2891 c 0,0.721 0.37175,1.7384 0.82612,2.2609 0.45437,0.5225 1.43434,2.975 2.17772,5.45 2.59695,8.64627 3.4625,9.64466 10.21933,11.78774 19.73311,6.25881 42.7607,17.83126 57.77683,29.03559 26.27022,19.6016 40,42.38933 40,66.38923 0,27.08312 -15.19576,50.27758 -47.5,72.5029 -11.93053,8.20821 -36.35396,19.57638 -52.30899,24.34783 -4.91541,1.46999 -5.1645,1.82711 -8.75045,12.54577 -1.45196,4.34002 -5.01037,13.14388 -7.90757,19.56414 -17.12903,37.95834 -40.72531,63.09329 -67.3155,71.705 -6.16601,1.99698 -22.36341,3.42067 -28.71749,2.52417 z"
       id="path573" />
    <path
       style="fill:#ffffff"
       d="m 280,503.157 c 0,-4.31365 0.29415,-13.31365 0.65368,-20 l 0.65367,-12.157 -4.40367,-10e-4 c -9.59955,-0.003 -23.23616,-3.76892 -30.90925,-8.53695 C 240.99892,459.35767 235,452.39623 235,449.7034 c 0,-2.01047 0.76495,-2.44342 6.25,-3.53746 23.19574,-4.62657 39.23964,-14.10017 50.24041,-29.66594 6.16834,-8.72802 12.41964,-22.72247 14.51769,-32.5 1.6376,-7.63165 3.80657,-18.85128 4.92965,-25.5 0.65033,-3.85 1.57134,-9.025 2.04668,-11.5 3.15772,-16.4413 6.86621,-38.40554 8.00758,-47.42634 2.34017,-18.49559 -1.76474,-35.06193 -11.47724,-46.31918 -6.19414,-7.17929 -18.3937,-13.24002 -33.01477,-16.4017 -9.0435,-1.95558 -41.97385,-1.67569 -51.5,0.43773 -25.06272,5.56026 -40.24294,15.00565 -52.09489,32.41433 C 170.2073,273.6675 168,277.14167 168,277.4252 c 0,0.28354 -1.19399,3.11637 -2.65331,6.29516 -1.45932,3.1788 -3.06424,7.35464 -3.56649,9.27964 -2.55303,9.78517 -3.69751,15.02259 -5.73614,26.25 -0.57423,3.1625 -1.49406,8.225 -2.04406,11.25 -0.55,3.025 -1.45,7.975 -2,11 -0.55,3.025 -1.45,7.975 -2,11 -2.61925,14.40587 -3.17473,17.63918 -4.53772,26.41287 -5.18512,33.37722 5.43454,55.09204 31.25418,63.90777 3.18095,1.08609 7.31565,2.24843 9.18823,2.58297 4.35755,0.7785 6.09531,2.25246 6.09531,5.17004 0,6.73044 6.18004,23.17912 11.36006,30.23571 4.92018,6.70263 14.47211,15.55421 19.61762,18.17925 13.99951,7.14202 31.89271,11.23743 51.77232,11.8497 L 280,511 Z"
       id="path836" />
    <path
       style="fill:#646cff;fill-opacity:1"
       d="m 208.5,402.11927 c -9.97632,-4.61357 -12.4821,-11.01009 -10.58275,-27.01456 0.69219,-5.83259 1.62833,-12.40471 2.0803,-14.60471 0.45198,-2.2 1.32609,-7.15 1.94247,-11 0.61638,-3.85 1.5364,-9.25 2.04449,-12 0.5081,-2.75 1.41507,-7.925 2.01549,-11.5 2.00043,-11.9108 3.11054,-17.46838 4.1947,-21 5.38239,-17.53293 16.62377,-26 34.51914,-26 12.54999,0 19.32973,4.20342 22.84368,14.16304 2.49326,7.06664 2.18813,10.23586 -4.55752,47.33696 -0.55,3.025 -1.45,7.975 -2,11 -0.55,3.025 -1.42413,7.8625 -1.94251,10.75 -3.80242,21.18021 -6.03082,26.91905 -13.18066,33.94432 -5.27621,5.18427 -11.3397,7.1684 -22.87683,7.48585 -8.53676,0.2349 -11.2479,-0.0569 -14.5,-1.5609 z"
       id="path838" />
    <path
       d="m 645.52271,451.64023 q -5.625,1.40625 -11.15625,1.96875 -5.4375,0.65625 -11.15625,0.65625 -16.3125,0 -26.25,-9 -9.84375,-8.90625 -10.6875,-25.59375 -2.25,0.375 -4.40625,0.46875 -2.0625,0.1875 -4.03125,0.1875 -14.71875,0 -26.8125,-4.875 -12,-4.875 -20.4375,-14.15625 -8.4375,-9.28125 -13.03125,-22.78125 -4.5,-13.5 -4.5,-30.84375 0,-17.0625 4.5,-30.5625 4.5,-13.59375 13.125,-23.25 8.25,-9.1875 20.4375,-14.0625 12.28125,-4.875 26.71875,-4.875 15,0 26.90625,4.96875 12,4.875 20.34375,13.96875 8.53125,9.375 13.03125,22.96875 4.59375,13.59375 4.59375,30.84375 0,25.59375 -10.5,43.125 -10.40625,17.53125 -28.03125,24.5625 0.375,10.6875 5.0625,16.59375 4.6875,5.90625 17.0625,5.90625 3.84375,0 9.09375,-1.21875 5.34375,-1.125 7.59375,-2.0625 h 2.53125 z m -22.125,-103.96875 q 0,-27.1875 -12.1875,-41.90625 -12.1875,-14.8125 -33.28125,-14.8125 -21.28125,0 -33.46875,14.8125 -12.09375,14.71875 -12.09375,41.90625 0,27.46875 12.375,42.09375 12.375,14.53125 33.1875,14.53125 20.8125,0 33.09375,-14.53125 12.375,-14.625 12.375,-42.09375 z"
       id="path482"
       style="font-size:192px;font-family:'MS Reference Sans Serif';-inkscape-font-specification:'MS Reference Sans Serif';fill:#ffffff" />
    <path
       d="m 757.55396,417.42148 h -17.625 v -11.625 q -8.90625,7.03125 -17.0625,10.78125 -8.15625,3.75 -18,3.75 -16.5,0 -25.6875,-10.03125 -9.1875,-10.125 -9.1875,-29.625 v -67.96875 h 17.625 v 59.625 q 0,7.96875 0.75,13.6875 0.75,5.625 3.1875,9.65625 2.53125,4.125 6.5625,6 4.03125,1.875 11.71875,1.875 6.84375,0 14.90625,-3.5625 8.15625,-3.5625 15.1875,-9.09375 v -78.1875 h 17.625 z"
       id="path479"
       style="font-size:192px;font-family:'MS Reference Sans Serif';-inkscape-font-specification:'MS Reference Sans Serif';fill:#ffffff" />
    <path
       d="m 811.17896,295.17148 h -19.875 v -18.28125 h 19.875 z m -1.125,122.25 h -17.625 V 312.70273 h 17.625 z"
       id="path476"
       style="font-size:192px;font-family:'MS Reference Sans Serif';-inkscape-font-specification:'MS Reference Sans Serif';fill:#ffffff" />
    <path
       d="m 920.86646,417.42148 h -84.5625 v -13.03125 l 61.03125,-76.96875 h -59.71875 v -14.71875 h 81.65625 v 12.5625 l -61.3125,77.25 h 62.90625 z"
       id="path473"
       style="font-size:192px;font-family:'MS Reference Sans Serif';-inkscape-font-specification:'MS Reference Sans Serif';fill:#ffffff" />
    <path
       d="m 1027.179,417.42148 h -17.5313 v -11.15625 q -2.3437,1.59375 -6.375,4.5 -3.93749,2.8125 -7.68749,4.5 -4.40625,2.15625 -10.125,3.5625 -5.71875,1.5 -13.40625,1.5 -14.15625,0 -24,-9.375 -9.84375,-9.375 -9.84375,-23.90625 0,-11.90625 5.0625,-19.21875 5.15625,-7.40625 14.625,-11.625 9.5625,-4.21875 22.96875,-5.71875 13.40625,-1.5 28.78124,-2.25 v -2.71875 q 0,-6 -2.1562,-9.9375 -2.0625,-3.9375 -6,-6.1875 -3.75004,-2.15625 -9.00004,-2.90625 -5.25,-0.75 -10.96875,-0.75 -6.9375,0 -15.46875,1.875 -8.53125,1.78125 -17.625,5.25 h -0.9375 v -17.90625 q 5.15625,-1.40625 14.90625,-3.09375 9.75,-1.6875 19.21875,-1.6875 11.0625,0 19.21874,1.875 8.25,1.78125 14.25,6.1875 5.9063,4.3125 9,11.15625 3.0938,6.84375 3.0938,16.96875 z m -17.5313,-25.78125 v -29.15625 q -8.0625,0.46875 -19.03124,1.40625 -10.875,0.9375 -17.25,2.71875 -7.59375,2.15625 -12.28125,6.75 -4.6875,4.5 -4.6875,12.46875 0,9 5.4375,13.59375 5.4375,4.5 16.59375,4.5 9.28125,0 16.96875,-3.5625 7.68749,-3.65625 14.24999,-8.71875 z"
       id="path470"
       style="font-size:192px;font-family:'MS Reference Sans Serif';-inkscape-font-specification:'MS Reference Sans Serif';fill:#ffffff" />
    <path
       d="m 1078.929,417.42148 h -17.625 v -145.875 h 17.625 z"
       id="path467"
       style="font-size:192px;font-family:'MS Reference Sans Serif';-inkscape-font-specification:'MS Reference Sans Serif';fill:#ffffff" />
    <path
       d="m 1132.7415,295.17148 h -19.875 v -18.28125 h 19.875 z m -1.125,122.25 h -17.625 V 312.70273 h 17.625 z"
       id="path464"
       style="font-size:192px;font-family:'MS Reference Sans Serif';-inkscape-font-specification:'MS Reference Sans Serif';fill:#ffffff" />
    <path
       d="m 1243.929,410.85898 q -8.8125,4.21875 -16.7813,6.5625 -7.875,2.34375 -16.7812,2.34375 -11.3438,0 -20.8125,-3.28125 -9.4688,-3.375 -16.2188,-10.125 -6.8437,-6.75 -10.5937,-17.0625 -3.75,-10.3125 -3.75,-24.09375 0,-25.6875 14.0625,-40.3125 14.1562,-14.625 37.3125,-14.625 9,0 17.625,2.53125 8.7187,2.53125 15.9375,6.1875 v 19.59375 h -0.9375 q -8.0625,-6.28125 -16.6875,-9.65625 -8.5313,-3.375 -16.6875,-3.375 -15,0 -23.7188,10.125 -8.625,10.03125 -8.625,29.53125 0,18.9375 8.4375,29.15625 8.5313,10.125 23.9063,10.125 5.3437,0 10.875,-1.40625 5.5312,-1.40625 9.9375,-3.65625 3.8437,-1.96875 7.2187,-4.125 3.375,-2.25 5.3438,-3.84375 h 0.9375 z"
       id="path461"
       style="font-size:192px;font-family:'MS Reference Sans Serif';-inkscape-font-specification:'MS Reference Sans Serif';fill:#ffffff" />
    <path
       d="m 1285.4602,295.17148 h -19.875 v -18.28125 h 19.875 z m -1.125,122.25 h -17.625 V 312.70273 h 17.625 z"
       id="path458"
       style="font-size:192px;font-family:'MS Reference Sans Serif';-inkscape-font-specification:'MS Reference Sans Serif';fill:#ffffff" />
    <path
       d="m 1408.4602,365.10898 q 0,25.59375 -13.125,40.40625 -13.125,14.8125 -35.1562,14.8125 -22.2188,0 -35.3438,-14.8125 -13.0312,-14.8125 -13.0312,-40.40625 0,-25.59375 13.0312,-40.40625 13.125,-14.90625 35.3438,-14.90625 22.0312,0 35.1562,14.90625 13.125,14.8125 13.125,40.40625 z m -18.1875,0 q 0,-20.34375 -7.9687,-30.1875 -7.9688,-9.9375 -22.125,-9.9375 -14.3438,0 -22.3125,9.9375 -7.875,9.84375 -7.875,30.1875 0,19.6875 7.9687,29.90625 7.9688,10.125 22.2188,10.125 14.0625,0 22.0312,-10.03125 8.0625,-10.125 8.0625,-30 z"
       id="path455"
       style="font-size:192px;font-family:'MS Reference Sans Serif';-inkscape-font-specification:'MS Reference Sans Serif';fill:#ffffff" />
    <path
       d="m 1522.554,417.42148 h -17.625 v -11.625 q -8.9063,7.03125 -17.0625,10.78125 -8.1563,3.75 -18,3.75 -16.5,0 -25.6875,-10.03125 -9.1875,-10.125 -9.1875,-29.625 v -67.96875 h 17.625 v 59.625 q 0,7.96875 0.75,13.6875 0.75,5.625 3.1875,9.65625 2.5312,4.125 6.5625,6 4.0312,1.875 11.7187,1.875 6.8438,0 14.9063,-3.5625 8.1562,-3.5625 15.1875,-9.09375 v -78.1875 h 17.625 z"
       id="path452"
       style="font-size:192px;font-family:'MS Reference Sans Serif';-inkscape-font-specification:'MS Reference Sans Serif';fill:#ffffff" />
    <path
       d="m 1632.054,387.23398 q 0,14.34375 -11.9063,23.53125 -11.8125,9.1875 -32.3437,9.1875 -11.625,0 -21.375,-2.71875 -9.6563,-2.8125 -16.2188,-6.09375 v -19.78125 h 0.9375 q 8.3438,6.28125 18.5625,10.03125 10.2188,3.65625 19.5938,3.65625 11.625,0 18.1875,-3.75 6.5625,-3.75 6.5625,-11.8125 0,-6.1875 -3.5625,-9.375 -3.5625,-3.1875 -13.6875,-5.4375 -3.75,-0.84375 -9.8438,-1.96875 -6,-1.125 -10.9687,-2.4375 -13.7813,-3.65625 -19.5938,-10.6875 -5.7187,-7.125 -5.7187,-17.4375 0,-6.46875 2.625,-12.1875 2.7187,-5.71875 8.1562,-10.21875 5.25,-4.40625 13.3125,-6.9375 8.1563,-2.625 18.1875,-2.625 9.375,0 18.9375,2.34375 9.6563,2.25 16.0313,5.53125 v 18.84375 h -0.9375 q -6.75,-4.96875 -16.4063,-8.34375 -9.6562,-3.46875 -18.9375,-3.46875 -9.6562,0 -16.3125,3.75 -6.6562,3.65625 -6.6562,10.96875 0,6.46875 4.0312,9.75 3.9375,3.28125 12.75,5.34375 4.875,1.125 10.875,2.25 6.0938,1.125 10.125,2.0625 12.2813,2.8125 18.9375,9.65625 6.6563,6.9375 6.6563,18.375 z"
       id="path449"
       style="font-size:192px;font-family:'MS Reference Sans Serif';-inkscape-font-specification:'MS Reference Sans Serif';fill:#ffffff" />
  </g>
</svg>
