<?xml version="1.0" encoding="UTF-8" standalone="no"?>
<!-- Created with Inkscape (http://www.inkscape.org/) -->

<svg
   version="1.1"
   id="svg2"
   width="406.3504"
   height="406.06183"
   viewBox="0 0 406.3504 406.06183"
   sodipodi:docname="Quizalicious logo full.svg"
   inkscape:version="1.2.1 (9c6d41e410, 2022-07-14)"
   xmlns:inkscape="http://www.inkscape.org/namespaces/inkscape"
   xmlns:sodipodi="http://sodipodi.sourceforge.net/DTD/sodipodi-0.dtd"
   xmlns="http://www.w3.org/2000/svg"
   xmlns:svg="http://www.w3.org/2000/svg">
  <defs
     id="defs6" />
  <sodipodi:namedview
     id="namedview4"
     pagecolor="#ffffff"
     bordercolor="#000000"
     borderopacity="0.25"
     inkscape:showpageshadow="2"
     inkscape:pageopacity="0.0"
     inkscape:pagecheckerboard="0"
     inkscape:deskcolor="#d1d1d1"
     showgrid="false"
     inkscape:zoom="0.089497042"
     inkscape:cx="-921.81818"
     inkscape:cy="-2402.314"
     inkscape:window-width="1695"
     inkscape:window-height="1015"
     inkscape:window-x="491"
     inkscape:window-y="214"
     inkscape:window-maximized="0"
     inkscape:current-layer="g8" />
  <g
     inkscape:groupmode="layer"
     inkscape:label="Image"
     id="g8"
     transform="translate(-28.649599,-152.61456)">
    <path
       style="fill:#646cff;fill-opacity:1;stroke-width:0.981927"
       d="m 380.2678,262.54331 c -9.79635,-4.69505 -12.67317,-5.98772 -17.18374,-7.72139 -5.37669,-2.06658 -13.18071,-4.86645 -16.69278,-5.98893 -4.85173,-1.55065 -7.36445,-3.55161 -7.36445,-5.86454 0,-0.971 -0.40397,-2.78046 -0.89772,-4.02101 -0.49375,-1.24054 -2.31056,-6.01141 -4.03736,-10.60192 -3.91088,-10.39659 -5.09801,-13.12134 -10.31555,-23.67639 -2.29908,-4.65108 -3.89552,-8.90962 -3.5476,-9.46341 0.41775,-0.66499 3.46687,-0.72976 8.97895,-0.19075 30.93135,3.02465 53.24335,21.37572 60.82045,50.02332 2.15434,8.14515 3.09278,21.72433 1.53197,22.16752 -0.54007,0.15335 -5.62154,-1.94478 -11.29217,-4.6625 z"
       id="path882"
       inkscape:export-filename="Quizalicious logo full light theme.png"
       inkscape:export-xdpi="94.57"
       inkscape:export-ydpi="94.57" />
    <path
       style="fill:#646cff;fill-opacity:1;stroke-width:0.981927"
       d="m 71.298281,266.10449 c -0.726516,-1.89326 0.411368,-14.17737 1.860416,-20.08428 1.663257,-6.7801 6.151387,-17.09815 9.703475,-22.30795 8.663038,-12.70595 23.845828,-22.95 39.649578,-26.75212 8.29953,-1.99674 19.51584,-2.94116 20.71296,-1.74405 0.39168,0.39169 -1.53645,5.4653 -4.28474,11.27471 -5.1725,10.93376 -10.15535,23.02734 -12.64589,30.69207 -3.1528,9.70286 -3.04955,9.58055 -10.01908,11.87055 -10.63051,3.49291 -25.56067,9.58761 -34.858536,14.22973 -4.780428,2.38671 -8.881569,4.33948 -9.113652,4.33948 -0.232082,0 -0.684121,-0.68316 -1.004531,-1.51814 z"
       id="path880" />
    <path
       style="fill:#646cff;fill-opacity:1;stroke-width:0.981927"
       d="m 320.3702,515.64578 c 0,-0.88841 1.26332,-4.14343 2.80736,-7.23337 4.45006,-8.90543 9.66127,-21.52924 13.64601,-33.05657 3.81315,-11.03096 4.04726,-11.32514 10.54965,-13.25659 2.16024,-0.64166 4.81144,-1.53782 5.89156,-1.99147 1.08012,-0.45364 6.8244,-2.72449 12.76506,-5.04631 5.94066,-2.32184 14.08385,-5.90755 18.09594,-7.96828 4.70162,-2.41486 7.63256,-3.40892 8.24509,-2.7964 1.34934,1.34935 -0.70591,17.77537 -3.18044,25.41901 -3.13357,9.67931 -8.52796,19.04778 -14.67736,25.49028 -11.97883,12.54978 -26.93707,19.28012 -47.51486,21.37896 -5.7706,0.58858 -6.62801,0.46706 -6.62801,-0.93926 z"
       id="path842" />
    <path
       style="fill:#646cff;fill-opacity:1;stroke-width:0.981927"
       d="m 130.59015,515.96312 c -27.76058,-4.06321 -47.463006,-20.37558 -56.229274,-46.55433 -1.976774,-5.90326 -4.281977,-23.61262 -3.283844,-25.22763 0.497856,-0.80555 3.745097,0.34121 10.852698,3.8326 13.40002,6.58235 19.17147,9.12093 20.73639,9.12093 0.70797,0 1.70698,0.3623 2.22004,0.80511 0.51306,0.44281 4.24683,1.84957 8.29729,3.12613 9.1219,2.87491 10.22174,3.78592 12.23223,10.13211 3.23254,10.20366 8.78781,23.96456 13.44189,33.29682 2.6211,5.25578 4.76564,10.22678 4.76564,11.04669 0,1.68659 -3.59553,1.8029 -13.03306,0.42157 z"
       id="path840" />
    <path
       style="fill:#646cff;fill-opacity:1"
       d="M 222.5,558.40237 C 201.92319,555.49918 181.44071,541.19501 164.11025,517.62524 155.85492,506.39782 140,476.18259 140,471.67757 c 0,-0.73933 -0.30023,-1.64446 -0.66717,-2.01141 -0.36695,-0.36694 -1.82945,-4.07485 -3.25,-8.2398 L 133.5,453.85374 124,450.56925 C 89.40323,438.60791 59.794356,419.66357 45.250235,400.18359 43.737606,398.15761 41.990223,395.95808 41.367162,395.29573 39.091759,392.87686 31.141144,375.34936 29.892812,370 c -2.902196,-12.43652 -0.549787,-31.84197 5.251817,-43.3232 9.933439,-19.65803 30.725147,-38.78987 56.982961,-52.43382 11.5222,-5.9871 17.40617,-8.52331 30.77611,-13.26563 11.58679,-4.10983 9.89665,-2.23533 15.30754,-16.97735 1.11029,-3.025 2.86697,-7.4076 3.90374,-9.7391 C 143.15174,231.92939 144,229.8121 144,229.5558 144,228.35738 150.92238,214.63093 155.37511,207 168.93502,183.7615 189.53447,163.90916 207,157.24748 c 10.72744,-4.09165 13.59307,-4.63354 24.5,-4.63292 12.38688,7.1e-4 18.7269,1.49321 29.85978,7.02926 15.75024,7.83212 28.75403,19.90159 41.32541,38.35618 C 309.75774,208.3824 324,236.63939 324,240.2891 c 0,0.721 0.37175,1.7384 0.82612,2.2609 0.45437,0.5225 1.43434,2.975 2.17772,5.45 2.59695,8.64627 3.4625,9.64466 10.21933,11.78774 19.73311,6.25881 42.7607,17.83126 57.77683,29.03559 26.27022,19.6016 40,42.38933 40,66.38923 0,27.08312 -15.19576,50.27758 -47.5,72.5029 -11.93053,8.20821 -36.35396,19.57638 -52.30899,24.34783 -4.91541,1.46999 -5.1645,1.82711 -8.75045,12.54577 -1.45196,4.34002 -5.01037,13.14388 -7.90757,19.56414 -17.12903,37.95834 -40.72531,63.09329 -67.3155,71.705 -6.16601,1.99698 -22.36341,3.42067 -28.71749,2.52417 z"
       id="path573" />
    <path
       style="fill:#ffffff"
       d="m 280,503.157 c 0,-4.31365 0.29415,-13.31365 0.65368,-20 l 0.65367,-12.157 -4.40367,-10e-4 c -9.59955,-0.003 -23.23616,-3.76892 -30.90925,-8.53695 C 240.99892,459.35767 235,452.39623 235,449.7034 c 0,-2.01047 0.76495,-2.44342 6.25,-3.53746 23.19574,-4.62657 39.23964,-14.10017 50.24041,-29.66594 6.16834,-8.72802 12.41964,-22.72247 14.51769,-32.5 1.6376,-7.63165 3.80657,-18.85128 4.92965,-25.5 0.65033,-3.85 1.57134,-9.025 2.04668,-11.5 3.15772,-16.4413 6.86621,-38.40554 8.00758,-47.42634 2.34017,-18.49559 -1.76474,-35.06193 -11.47724,-46.31918 -6.19414,-7.17929 -18.3937,-13.24002 -33.01477,-16.4017 -9.0435,-1.95558 -41.97385,-1.67569 -51.5,0.43773 -25.06272,5.56026 -40.24294,15.00565 -52.09489,32.41433 C 170.2073,273.6675 168,277.14167 168,277.4252 c 0,0.28354 -1.19399,3.11637 -2.65331,6.29516 -1.45932,3.1788 -3.06424,7.35464 -3.56649,9.27964 -2.55303,9.78517 -3.69751,15.02259 -5.73614,26.25 -0.57423,3.1625 -1.49406,8.225 -2.04406,11.25 -0.55,3.025 -1.45,7.975 -2,11 -0.55,3.025 -1.45,7.975 -2,11 -2.61925,14.40587 -3.17473,17.63918 -4.53772,26.41287 -5.18512,33.37722 5.43454,55.09204 31.25418,63.90777 3.18095,1.08609 7.31565,2.24843 9.18823,2.58297 4.35755,0.7785 6.09531,2.25246 6.09531,5.17004 0,6.73044 6.18004,23.17912 11.36006,30.23571 4.92018,6.70263 14.47211,15.55421 19.61762,18.17925 13.99951,7.14202 31.89271,11.23743 51.77232,11.8497 L 280,511 Z"
       id="path836" />
    <path
       style="fill:#646cff;fill-opacity:1"
       d="m 208.5,402.11927 c -9.97632,-4.61357 -12.4821,-11.01009 -10.58275,-27.01456 0.69219,-5.83259 1.62833,-12.40471 2.0803,-14.60471 0.45198,-2.2 1.32609,-7.15 1.94247,-11 0.61638,-3.85 1.5364,-9.25 2.04449,-12 0.5081,-2.75 1.41507,-7.925 2.01549,-11.5 2.00043,-11.9108 3.11054,-17.46838 4.1947,-21 5.38239,-17.53293 16.62377,-26 34.51914,-26 12.54999,0 19.32973,4.20342 22.84368,14.16304 2.49326,7.06664 2.18813,10.23586 -4.55752,47.33696 -0.55,3.025 -1.45,7.975 -2,11 -0.55,3.025 -1.42413,7.8625 -1.94251,10.75 -3.80242,21.18021 -6.03082,26.91905 -13.18066,33.94432 -5.27621,5.18427 -11.3397,7.1684 -22.87683,7.48585 -8.53676,0.2349 -11.2479,-0.0569 -14.5,-1.5609 z"
       id="path838" />
  </g>
</svg>
